<svg width="75" height="75" fill="none" xmlns="http://www.w3.org/2000/svg"><path fill="#F8F8F8" d="M0 0h75v75H0z"/><path d="M32.725 16.366h.001L40.5 9.351l14.414 13.002H52.86L40.898 11.642a.598.598 0 00-.796 0L28.14 22.354h-2.054l6.639-5.988zm-3.164-3.694h2.162v3.04L29.56 17.66v-4.989zm10.101 26.184V26.353a.58.58 0 00-.587-.571h-6.77a.58.58 0 00-.587.571v12.503h-2.76V23.177L40.5 12.84l11.544 10.338v15.68H39.662zm-1.175 0h-5.594v-11.93h5.594v11.93zm-13.9-15.358h3.195v15.93a.58.58 0 00.587.572h24.263a.58.58 0 00.587-.572v-15.93h3.194a.59.59 0 00.546-.363.562.562 0 00-.148-.629L40.9 8.153a.597.597 0 00-.799 0l-7.203 6.498V12.1a.58.58 0 00-.588-.573h-3.337a.58.58 0 00-.588.573v6.62l-4.197 3.785a.561.561 0 00-.147.63.589.589 0 00.547.363z" fill="#181818"/><path d="M33.5 35c.276 0 .5-.29.5-.646v-2.708c0-.356-.224-.646-.5-.646s-.5.29-.5.646v2.708c0 .356.224.646.5.646zm12.096-2.19v-2.215h2.213v2.214h-2.213zm-3.405-2.215h2.214v2.214H42.19v-2.214zm2.214-3.404v2.213H42.19v-2.213h2.214zm3.404 2.213h-2.213v-2.213h2.213v2.213zM48.405 26h-6.81a.596.596 0 00-.595.596v6.808c0 .329.267.596.596.596h6.809a.595.595 0 00.595-.596v-6.809a.596.596 0 00-.595-.595zM17.136 53.071l12.594 8.38-2.752 4.16-12.593-8.382 2.751-4.158zm6.081-2.058c1.114-1.671 3.132-4.067 4.135-4.158l1.572-.148c4.542-.437 12.998-1.249 14.54.353.14.146.19.291.164.488-.324 2.482-5.474 2.102-5.526 2.097a.583.583 0 00-.102 1.16c.237.021 5.406.438 6.569-2.353 6.507-3.86 14.168-7.28 15.328-6.112 1.924 1.93.508 4.79-.837 6.14-1.949 1.953-9.232 7.283-11.428 7.763-2.99.654-13.951.073-16.393-1.083a.58.58 0 00-.698.16l-2.776 3.427-6.908-4.597 2.36-3.137zm-9.957 6.865l13.56 9.025a.58.58 0 00.805-.163l3.393-5.13a.584.584 0 00-.163-.808l-2.118-1.409 2.434-3.004c3.441 1.233 13.849 1.616 16.708.993 2.591-.567 10.107-6.18 12.003-8.08 1.66-1.667 3.357-5.255.837-7.785-2.172-2.178-11.859 3.085-15.99 5.49a1.732 1.732 0 00-.43-.756c-1.783-1.852-8.342-1.39-15.486-.704l-1.566.148c-1.91.174-4.496 3.923-4.976 4.645l-2.383 3.164-2.593-1.726a.579.579 0 00-.805.163l-3.393 5.13a.58.58 0 00.163.807z" fill="#181818"/></svg>