<svg width="75" height="75" fill="none" xmlns="http://www.w3.org/2000/svg"><path fill="#F8F8F8" d="M0 0h75v75H0z"/><path d="M43.437 51.1a6.858 6.858 0 00-1.33-1.676c1.172-2.045 2.666-2.848 3.744-3.147a5.04 5.04 0 01.62-.13c.53-.08.875-.043.877-.043h.023l.035.003.032-.003h.024c.004 0 .373-.04.935.051 1.334.212 3.706 1.145 5.087 4.946H43.437zm-9.772 1.743c.465-1.23 1.062-2.07 1.68-2.643l.014-.014a4.448 4.448 0 011.832-1.034 4.21 4.21 0 01.487-.104c.41-.061.68-.033.683-.032h.025l.03.002.033-.002h.024c.002 0 .29-.03.726.04 1.037.165 2.87.883 3.97 3.787h-9.504zm-10.314-1.742c1.134-3.103 2.952-4.214 4.32-4.593.214-.058.413-.1.593-.126.504-.075.836-.04.837-.04h.023l.035.004.033-.003h.023a3.72 3.72 0 01.892.048c1.029.164 2.913.829 4.267 3.377a7.077 7.077 0 00-.98 1.333H23.35zm1.66-8.635c0-2.376 1.86-4.31 4.147-4.31s4.148 1.934 4.148 4.31l-.01 1.957h-.797c.345-.58.556-1.25.556-1.971a.494.494 0 00-.495-.496c-1.33 0-2.906-1.575-2.906-2.905a.495.495 0 00-.99 0c0 1.33-1.575 2.905-2.906 2.905a.495.495 0 00-.496.495c0 .722.212 1.392.556 1.972h-.806v-1.957zm4.148 2.888l-.05-.002a2.91 2.91 0 01-2.822-2.456c1.144-.214 2.256-1.084 2.872-2.15.617 1.066 1.729 1.936 2.872 2.15a2.908 2.908 0 01-2.823 2.456l-.049.002zm9.258-2.035a2.358 2.358 0 012.355 2.355 2.354 2.354 0 01-2.318 2.35l-.036.003-.04-.002a2.356 2.356 0 01-2.316-2.35 2.357 2.357 0 012.355-2.355zm5.942-1.247c0-.083.013-.164.02-.246.618-.287 1.458-.757 1.963-1.372 1.284 1.315 3.032 1.64 4.102 1.708a3.042 3.042 0 01-2.994 2.951l-.044.003-.048-.004a3.046 3.046 0 01-3-3.04zm3.047-3.85a3.453 3.453 0 013.414 2.964c-.935-.023-3-.267-4.158-1.89a.497.497 0 00-.404-.207l-.095.01a.495.495 0 00-.386.37c-.116.487-.934 1.036-1.73 1.42a3.453 3.453 0 013.359-2.666zm2.207 7.222a4.026 4.026 0 001.822-3.292.491.491 0 00.41-.482 4.444 4.444 0 00-4.44-4.438 4.444 4.444 0 00-4.438 4.438c0 .161.078.312.208.404l.202.08a4.026 4.026 0 001.828 3.293c-1.194.412-2.693 1.344-3.891 3.375a5.37 5.37 0 00-.922-.462 3.334 3.334 0 001.37-2.686c0-1.844-1.5-3.345-3.345-3.345a3.349 3.349 0 00-3.346 3.345c0 1.103.544 2.076 1.37 2.685-.42.161-.864.393-1.308.725-1.154-2.053-2.638-2.98-3.81-3.397.12-.08.226-.18.336-.273h2.128c.273 0 .494-.22.495-.492l.015-2.456c0-2.922-2.305-5.3-5.139-5.3-2.832 0-5.137 2.378-5.137 5.3v2.453c0 .273.221.495.495.495h2.143c.11.093.215.192.334.273-1.638.578-3.663 2.058-4.804 5.763a.494.494 0 00.473.64h10.24c-.145.34-.28.705-.403 1.102a.495.495 0 00.473.642h10.89a.494.494 0 00.473-.642 11.27 11.27 0 00-.407-1.101h10.244a.497.497 0 00.473-.641c-1.21-3.927-3.382-5.436-5.032-6.006z" fill="#181818"/><path d="M38 14.159l23.24 21.31h-3.635L38.335 18.03a.502.502 0 00-.67 0L18.396 35.468H14.76l23.242-21.31zm-18.916 6.193h4.723v5.484l-4.723 4.33v-9.814zm0 41.668V36.174l18.917-17.117 18.916 17.117V62.02H19.084zm-5.588-25.571h4.597v26.06c0 .272.221.491.496.491h38.824a.493.493 0 00.495-.49V36.449h4.596a.495.495 0 00.461-.311.485.485 0 00-.124-.539L38.337 13.131a.498.498 0 00-.674 0L24.798 24.927v-5.065a.493.493 0 00-.495-.49h-5.714a.492.492 0 00-.496.49v11.213L13.159 35.6c-.15.137-.2.35-.125.539a.496.496 0 00.462.31z" fill="#181818"/></svg>