<svg width="75" height="75" fill="none" xmlns="http://www.w3.org/2000/svg"><path fill="#F8F8F8" d="M0 0h75v75H0z"/><path d="M35.5 48.84c-1.258 0-2.282-.977-2.282-2.178 0-1.281.65-2.974 2.282-5.888 1.633 2.913 2.282 4.606 2.282 5.889 0 1.2-1.024 2.176-2.282 2.176zm-.533-9.562C32.832 42.964 32 45.033 32 46.663 32 48.503 33.57 50 35.5 50s3.5-1.498 3.5-3.337c0-1.63-.832-3.7-2.967-7.385-.214-.37-.851-.37-1.066 0z" fill="#181818"/><path d="M35.5 59.84c-1.258 0-2.282-.977-2.282-2.177 0-1.281.65-2.975 2.282-5.888 1.633 2.913 2.282 4.606 2.282 5.888 0 1.2-1.024 2.177-2.282 2.177zm-.533-9.562C32.832 53.964 32 56.035 32 57.663 32 59.505 33.57 61 35.5 61s3.5-1.495 3.5-3.337c0-1.629-.832-3.7-2.967-7.385-.214-.37-.851-.37-1.066 0zM51.5 48.84c-1.258 0-2.282-.977-2.282-2.178 0-1.282.65-2.975 2.282-5.888 1.633 2.913 2.282 4.606 2.282 5.889 0 1.2-1.024 2.176-2.282 2.176zm-.533-9.562C48.832 42.963 48 45.033 48 46.663 48 48.503 49.57 50 51.5 50s3.5-1.498 3.5-3.337c0-1.63-.832-3.7-2.968-7.385-.214-.37-.85-.37-1.065 0z" fill="#181818"/><path d="M51.5 59.84c-1.258 0-2.282-.977-2.282-2.177 0-1.282.65-2.975 2.282-5.888 1.633 2.913 2.282 4.606 2.282 5.888 0 1.2-1.024 2.177-2.282 2.177zm-.533-9.562C48.832 53.964 48 56.034 48 57.663 48 59.505 49.57 61 51.5 61s3.5-1.495 3.5-3.337c0-1.629-.832-3.7-2.968-7.385-.214-.37-.85-.37-1.065 0zM43.5 52.842c-1.258 0-2.282-.975-2.282-2.172 0-1.28.65-2.97 2.282-5.878 1.633 2.907 2.282 4.597 2.282 5.878 0 1.197-1.023 2.172-2.282 2.172zm0-9.842a.614.614 0 00-.532.299C40.831 46.977 40 49.042 40 50.669 40 52.507 41.57 54 43.5 54s3.5-1.494 3.5-3.33c0-1.628-.832-3.693-2.966-7.371A.615.615 0 0043.5 43zm0 21.84c-1.258 0-2.282-.973-2.282-2.172 0-1.28.65-2.97 2.282-5.877 1.633 2.907 2.282 4.597 2.282 5.877 0 1.199-1.023 2.173-2.282 2.173zm0-9.84a.614.614 0 00-.532.298C40.831 58.975 40 61.042 40 62.668 40 64.505 41.57 66 43.5 66s3.5-1.495 3.5-3.332c0-1.626-.832-3.693-2.967-7.37A.613.613 0 0043.5 55z" fill="#181818"/><path d="M56.873 34.806c0 .704-.577 1.277-1.287 1.277h-24.67c-.71 0-1.288-.573-1.288-1.277v-.617c0-.704.578-1.277 1.288-1.277h24.67c.71 0 1.288.573 1.288 1.277v.617zm-13.622-13.78c6.105 0 11.091 4.784 11.388 10.77H31.864c.296-5.986 5.282-10.77 11.387-10.77zm-11.3-7.886c-5.392 0-9.779 4.444-9.779 9.907v41.835h-3.046V23.047c0-7.13 5.754-12.93 12.825-12.93 6.913 0 12.551 4.405 12.8 9.891a12.615 12.615 0 00-1.5-.098c-.524 0-1.038.043-1.546.105-.261-3.823-4.53-6.875-9.754-6.875zm23.815 18.673c-.25-5.72-4.396-10.45-9.875-11.62C45.764 14.004 39.565 9 31.95 9 24.26 9 18 15.302 18 23.047v42.394c0 .308.252.559.563.559h4.172c.312 0 .564-.25.564-.559V23.047c0-4.847 3.881-8.79 8.652-8.79 4.683 0 8.5 2.65 8.64 5.942-5.47 1.177-9.606 5.901-9.855 11.614-1.246.093-2.234 1.117-2.234 2.376v.617a2.407 2.407 0 002.414 2.394h24.67A2.407 2.407 0 0058 34.805v-.616c0-1.26-.988-2.283-2.234-2.376z" fill="#181818"/></svg>