<svg width="32" height="30" fill="none" xmlns="http://www.w3.org/2000/svg"><path d="M10.5 8c-.167-1-1-3-3-3S5 7.333 5 8.5v4m0 0H2.5m2.5 0h24.5m1.5 0h-1.5M1 12.5h1.5m0 0V14m27-1.5V14m0 0v4.5c-.4 3.2-3.167 4-4.5 4H7c-1.426-.158-2.428-.688-3.119-1.353C2.828 20.133 2.5 18.805 2.5 18v-4m27 0h-27" stroke="#B1B1B1" stroke-linecap="round"/><rect x="4.661" y="21.706" width="2" height="3" rx=".86" transform="rotate(42.41 4.66 21.706)" stroke="#B1B1B1"/><rect x="-.032" y=".706" width="2" height="3" rx="1" transform="scale(-1 1) rotate(42.41 -40.568 -23.518)" stroke="#B1B1B1"/></svg>