<svg width="52" height="37" fill="none" xmlns="http://www.w3.org/2000/svg"><path d="M16.833 6.334c-.277-1.667-1.666-5-5-5-3.333 0-4.166 3.889-4.166 5.833v6.667m0 0H3.5m4.167 0H48.5m2.5 0h-2.5m-47.5 0h2.5m0 0v2.5m45-2.5v2.5m0 0v7.5c-.667 5.333-5.278 6.667-7.5 6.667H11c-2.377-.264-4.047-1.147-5.198-2.255C4.047 26.556 3.5 24.343 3.5 23v-6.667m45 0h-45" stroke="#181818" stroke-width="1.667" stroke-linecap="round"/><rect x="7.1" y="29.178" width="3.333" height="5" rx="1.433" transform="rotate(42.41 7.1 29.178)" stroke="#181818" stroke-width="1.667"/><rect x="-.053" y="1.177" width="3.333" height="5" rx="1.667" transform="scale(-1 1) rotate(42.41 -58.26 -41.838)" stroke="#181818" stroke-width="1.667"/></svg>