<svg width="52" height="62" fill="none" xmlns="http://www.w3.org/2000/svg"><path d="M2 45l4-6" stroke="#002664"/><path d="M25.795 7.127C11.929 5.673 4.532 8.676 2.566 10.359v2.54c1.966-1.683 9.363-4.686 23.229-3.232C39.66 11.121 48.709 6.19 51.5 3.54V1c-2.791 2.648-11.84 7.581-25.705 6.127z" fill="#002664"/><path d="M2.566 15.44v2.54c1.966-1.684 9.363-4.687 23.229-3.232C39.66 16.202 48.709 11.269 51.5 8.62V6.08c-2.791 2.648-11.839 7.58-25.705 6.126-13.866-1.454-21.263 1.55-23.229 3.232z" fill="#002664"/><path d="M2.566 20.52v2.54c1.966-1.683 9.363-4.686 23.229-3.232C39.66 21.282 48.709 16.35 51.5 13.701v-2.54c-2.791 2.648-11.839 7.581-25.705 6.127-13.866-1.454-21.263 1.549-23.229 3.232z" fill="#002664"/><path d="M2.566 25.6v2.54c1.966-1.683 9.363-4.686 23.229-3.231C39.66 26.363 48.709 21.43 51.5 18.782v-2.54c-2.791 2.648-11.839 7.58-25.705 6.127C11.929 20.913 4.532 23.916 2.566 25.6z" fill="#002664"/><path d="M2.566 30.68v2.407c1.966-1.659 9.363-4.619 23.229-3.185 13.866 1.433 22.914-3.43 25.705-6.04v-2.54c-2.791 2.648-11.839 7.581-25.705 6.127-13.866-1.454-21.263 1.548-23.229 3.232z" fill="#002664"/><path d="M2.566 35.628V38.3c1.966-1.683 9.363-4.686 23.229-3.231C39.66 36.524 48.709 31.59 51.5 28.943v-2.54c-2.791 2.61-11.839 7.473-25.705 6.039-13.866-1.434-21.263 1.526-23.229 3.186z" fill="#002664"/><path d="M2.566 10.359c1.966-1.683 9.363-4.686 23.229-3.232C39.66 8.581 48.709 3.648 51.5 1M2.566 10.359v30.483c1.966-1.684 9.363-4.686 23.229-3.232 13.865 1.454 22.914-3.48 25.705-6.127M2.566 10.359v2.54c1.966-1.683 9.363-4.686 23.229-3.232C39.66 11.121 48.709 6.19 51.5 3.54V1m0 0v30.55M2.566 15.44c1.966-1.684 9.363-4.687 23.229-3.232C39.66 13.662 48.709 8.727 51.5 6.08v2.54c-2.791 2.649-11.839 7.582-25.705 6.128-13.866-1.455-21.263 1.548-23.229 3.232v-2.54zm0 5.08c1.966-1.683 9.363-4.686 23.229-3.232 13.866 1.454 22.914-3.479 25.705-6.127v2.54c-2.791 2.648-11.839 7.581-25.705 6.127-13.866-1.454-21.263 1.549-23.229 3.232v-2.54zm0 5.08c1.966-1.683 9.363-4.686 23.229-3.232C39.66 23.824 48.709 18.89 51.5 16.242v2.54c-2.791 2.649-11.839 7.582-25.705 6.128-13.866-1.455-21.263 1.548-23.229 3.232V25.6zm0 5.08c1.966-1.683 9.363-4.685 23.229-3.231C39.66 28.903 48.709 23.97 51.5 21.322v2.54c-2.791 2.61-11.839 7.473-25.705 6.04-13.866-1.434-21.263 1.526-23.229 3.185v-2.406zm0 4.948c1.966-1.66 9.363-4.62 23.229-3.186 13.866 1.434 22.914-3.43 25.705-6.04v2.54c-2.791 2.649-11.839 7.582-25.705 6.128-13.866-1.455-21.263 1.548-23.229 3.23v-2.673z" stroke="#002664" stroke-width=".134"/><path d="M2.567 28.166v-17.84C5.16 8.446 8.6 7.359 12.724 6.906c4.123-.455 8.927-.276 14.243.37v17.748c-10.578-.714-16.286-.873-24.4 3.142z" fill="#002664" stroke="#002664" stroke-width=".134"/><path d="M24.888 9.486l.07-.372.007-.033-.027-.022-.295-.236.376-.047.034-.005.012-.032.133-.352.16.34.014.032.034.001.379.018-.276.259-.025.023.01.033.099.365-.331-.183-.03-.016-.029.019-.315.208zm-2.362-.256l.071-.37.006-.034-.026-.021-.295-.237.376-.047.034-.004.012-.032.132-.353.16.341.015.03.034.003.379.017-.276.259-.025.023.01.033.099.365-.331-.182-.03-.017-.029.019-.316.208zm-2.378-.182l.07-.371.007-.034-.027-.021-.295-.236.376-.048.034-.004.012-.032.132-.352.16.34.015.031.034.002.379.018-.276.258-.025.024.01.033.099.364-.331-.182-.03-.017-.029.02-.315.207zm-2.383-.092l.07-.37.007-.034-.027-.022-.295-.236.376-.048.034-.004.012-.032.133-.352.16.34.014.032.034.001.379.018-.276.259-.025.023.01.033.099.364-.331-.182-.03-.016-.029.018-.315.208zm-2.383.02l.07-.371.007-.034-.027-.021-.295-.236.376-.048.034-.004.012-.032.133-.352.16.34.014.031.034.002.379.018-.276.258-.024.024.009.033.1.364-.332-.182-.03-.017-.029.019-.315.208zm-2.381.159l.07-.371.007-.034-.027-.021-.295-.236.376-.048.034-.004.012-.032.133-.352.16.34.014.031.035.002.378.018-.275.258-.025.024.009.033.1.364-.332-.182-.03-.017-.028.02-.316.207zm-2.361.335l.07-.37.007-.034-.027-.021-.295-.236.376-.048.034-.004.012-.032.133-.352.16.34.014.031.034.002.379.018-.276.258-.025.024.01.033.099.364-.331-.182-.03-.017-.029.02-.315.207zm-2.317.563l.07-.37.007-.034-.026-.022-.295-.236.375-.047.034-.005.012-.032.133-.352.16.34.015.032.034.001.378.018-.275.259-.025.023.009.033.1.364-.331-.182-.03-.016-.029.019-.316.207zm-2.226.854l.07-.371.007-.034-.027-.021-.295-.236.376-.048.034-.004.012-.032.133-.352.16.34.014.031.034.002.379.018-.276.258-.025.024.01.033.099.364-.331-.182-.03-.017-.029.02-.315.207zm-2.055 1.212l.07-.371.007-.034-.027-.021-.295-.236.376-.048.034-.004.012-.032.133-.352.16.34.015.031.034.002.378.018-.275.258-.025.024.009.033.1.364-.332-.182-.03-.017-.028.019-.316.208zm20.846 5.809l.07-.37.007-.034-.027-.022-.295-.236.376-.047.034-.005.012-.032.133-.352.16.34.014.032.034.001.379.018-.276.259-.025.023.01.033.099.365-.331-.183-.03-.016-.029.019-.315.207zm-2.362-.254l.071-.372.006-.033-.026-.022-.295-.236.376-.047.034-.005.012-.032.132-.352.16.34.015.032.034.001.379.018-.276.259-.025.023.01.033.099.365-.331-.183-.03-.016-.029.019-.316.207zm-2.378-.182l.07-.371.007-.034-.027-.021-.295-.236.376-.048.034-.004.012-.032.132-.352.16.34.015.031.034.002.379.018-.276.258-.025.024.01.033.099.364-.331-.182-.03-.017-.029.02-.315.207zm-2.383-.092l.07-.372.007-.034-.027-.021-.295-.236.376-.048.034-.004.012-.032.133-.352.16.34.014.031.034.002.379.018-.276.258-.025.024.01.033.099.364-.331-.182-.03-.017-.029.02-.315.207zm-2.383.019l.07-.372.007-.033-.027-.021-.295-.237.376-.047.034-.005.012-.032.133-.352.16.34.014.032.034.002.379.017-.276.259-.024.023.009.033.1.365-.332-.182-.03-.017-.029.019-.315.208zm-2.381.159l.07-.371.007-.034-.027-.021-.295-.236.376-.048.034-.004.012-.032.133-.352.16.34.014.031.035.002.378.018-.275.258-.025.024.009.033.1.364-.332-.182-.03-.017-.028.019-.316.208zm-2.361.336l.07-.371.007-.034-.027-.021-.295-.236.376-.048.034-.004.012-.032.133-.352.16.34.014.031.034.002.379.017-.276.26-.025.022.01.034.099.364-.331-.182-.03-.017-.029.019-.315.208zm-2.317.562l.07-.37.007-.034-.026-.022-.295-.236.375-.048.034-.004.012-.032.133-.352.16.34.015.032.034.001.378.018-.275.259-.025.023.009.033.1.364-.331-.182-.03-.016-.029.018-.316.208zm-2.226.854l.07-.371.007-.034-.027-.021-.295-.236.376-.048.034-.004.012-.032.133-.352.16.34.014.031.034.002.379.017-.276.26-.025.023.01.032.099.365-.331-.182-.03-.017-.029.019-.315.208zm-2.055 1.212l.07-.371.007-.034-.027-.021-.295-.236.376-.048.034-.004.012-.032.133-.353.16.341.015.03.034.003.378.017-.275.26-.025.022.009.033.1.365-.332-.182-.03-.017-.028.019-.316.208zm20.846-5.287l.07-.371.007-.034-.027-.021-.295-.237.376-.047.034-.005.012-.032.133-.352.16.34.014.032.034.001.379.018-.276.259-.025.023.01.033.099.365-.331-.183-.03-.016-.029.019-.315.208zm-2.362-.255l.071-.371.006-.034-.026-.021-.295-.236.376-.048.034-.004.012-.033.132-.351.16.34.015.031.034.002.379.017-.276.26-.025.023.01.033.099.364-.331-.182-.03-.017-.029.019-.316.208zm-2.378-.183l.07-.371.007-.034-.027-.021-.295-.236.376-.048.034-.004.012-.032.132-.352.16.34.015.031.034.002.379.018-.276.258-.025.024.01.033.099.364-.331-.182-.03-.017-.029.02-.315.207zm-2.383-.092l.07-.37.007-.034-.027-.022-.295-.236.376-.048.034-.004.012-.032.133-.352.16.34.014.032.034.001.379.018-.276.259-.025.023.01.033.099.364-.331-.182-.03-.016-.029.019-.315.207zm-2.383.02l.07-.371.007-.034-.027-.021-.295-.236.376-.048.034-.004.012-.032.133-.352.16.34.014.031.034.002.379.018-.276.258-.024.024.009.033.1.364-.332-.182-.03-.017-.029.019-.315.208zm-2.381.159l.07-.371.007-.034-.027-.021-.295-.236.376-.048.034-.004.012-.032.133-.352.16.34.014.031.035.002.378.018-.275.258-.025.024.009.033.1.364-.332-.182-.03-.017-.028.02-.316.207zm-2.361.336l.07-.371.007-.034-.027-.021-.295-.236.376-.048.034-.004.012-.032.133-.352.16.34.014.031.034.002.379.018-.276.258-.025.024.01.033.099.364-.331-.182-.03-.017-.029.02-.315.207zm-2.317.562l.07-.37.007-.034-.026-.022-.295-.236.375-.047.034-.005.012-.032.133-.352.16.34.015.032.034.001.378.018-.275.259-.025.023.009.033.1.364-.331-.182-.03-.016-.029.019-.316.207zm-2.226.854l.07-.371.007-.034-.027-.021-.295-.236.376-.048.034-.004.012-.032.133-.352.16.34.014.031.034.002.379.018-.276.258-.025.024.01.033.099.364-.331-.182-.03-.017-.029.02-.315.207zm-2.055 1.212l.07-.371.007-.034-.027-.021-.295-.236.376-.048.034-.004.012-.032.133-.352.16.34.015.031.034.002.378.018-.275.258-.025.024.009.033.1.364-.332-.182-.03-.017-.028.02-.316.207zm20.846 5.809l.07-.37.007-.034-.027-.022-.295-.236.376-.047.034-.005.012-.032.133-.352.16.34.014.032.034.001.379.018-.276.259-.025.023.01.033.099.364-.331-.182-.03-.016-.029.019-.315.207zm-2.362-.255l.071-.37.006-.034-.026-.021-.295-.237.376-.047.034-.005.012-.032.132-.352.16.34.015.032.034.001.379.018-.276.259-.025.023.01.033.099.365-.331-.183-.03-.016-.029.019-.316.207zm-2.378-.182l.07-.371.007-.034-.027-.021-.295-.236.376-.048.034-.004.012-.032.132-.352.16.34.015.031.034.002.379.018-.276.258-.025.024.01.033.099.364-.331-.182-.03-.017-.029.02-.315.207zm-2.383-.092l.07-.371.007-.034-.027-.02-.295-.237.376-.048.034-.004.012-.032.133-.352.16.34.014.031.034.002.379.018-.276.259-.025.023.01.033.099.364-.331-.182-.03-.017-.029.02-.315.207zm-2.383.02l.07-.372.007-.033-.027-.021-.295-.237.376-.047.034-.005.012-.032.133-.352.16.341.014.03.034.002.379.018-.276.259-.024.023.009.033.1.365-.332-.183-.03-.016-.029.019-.315.208zm-2.381.159l.07-.371.007-.034-.027-.021-.295-.236.376-.048.034-.004.012-.032.133-.352.16.34.014.031.035.002.378.018-.275.258-.025.024.009.033.1.364-.332-.182-.03-.017-.028.019-.316.208zm-2.361.336l.07-.371.007-.034-.027-.021-.295-.236.376-.048.034-.004.012-.032.133-.352.16.34.014.031.034.002.379.018-.276.258-.025.024.01.032.099.365-.331-.182-.03-.017-.029.019-.315.208zm-2.317.562l.07-.37.007-.034-.026-.022-.295-.236.375-.048.034-.004.012-.032.133-.352.16.34.015.032.034.001.378.018-.275.259-.025.023.009.033.1.364-.331-.182-.03-.016-.029.018-.316.208zm-2.226.854l.07-.371.007-.034-.027-.021-.295-.236.376-.048.034-.004.012-.032.133-.352.16.34.014.031.034.002.379.018-.276.258-.025.024.01.033.099.364-.331-.182-.03-.017-.029.019-.315.208zM4.042 26.27l.07-.37.007-.034-.027-.021-.295-.236.376-.048.034-.004.012-.032.133-.352.16.34.015.031.034.002.378.017-.275.26-.025.023.009.032.1.365-.332-.182-.03-.017-.028.019-.316.208zm19.569-14.13l.08-.369.008-.033-.026-.022-.289-.244.377-.038.034-.003.013-.032.142-.348.151.344.014.032.034.002.378.028-.283.251-.025.023.008.033.09.367-.326-.19-.03-.018-.029.018-.32.2zm-2.371-.245l.08-.369.008-.033-.026-.022-.289-.244.377-.038.034-.003.013-.032.142-.348.151.344.014.032.034.002.378.028-.283.251-.025.023.008.033.09.367-.326-.19-.03-.018-.029.018-.32.2zm-2.38-.155l.08-.368.007-.034-.026-.022-.289-.244.377-.037.034-.004.013-.031.142-.349.151.345.014.031.034.003.378.028-.282.251-.026.023.008.033.09.367-.326-.191-.03-.017-.029.018-.32.199zm-2.385-.043l.08-.37.007-.033-.026-.022-.289-.243.377-.038.035-.003.012-.032.142-.349.151.345.014.031.034.003.378.028-.282.251-.026.023.008.033.09.367-.326-.191-.03-.017-.028.018-.321.199zm-2.383.096l.08-.37.007-.033-.026-.022-.288-.244.377-.037.034-.004.013-.031.142-.349.15.345.014.031.034.003.378.027-.282.252-.026.022.008.034.09.367-.326-.191-.03-.018-.028.018-.321.2zm-2.367.273l.08-.369.007-.033-.026-.022-.289-.244.377-.038.034-.003.013-.032.142-.348.151.344.014.031.034.003.378.028-.282.251-.026.023.008.033.09.367-.326-.19-.03-.018-.028.018-.321.2zm-2.332.501l.08-.369.007-.033-.026-.022-.289-.244.377-.038.034-.003.013-.032.142-.349.151.345.014.032.034.002.378.028-.282.251-.026.023.008.033.09.367-.326-.191-.03-.017-.028.018-.321.2zm-2.248.794l.08-.369.007-.033-.026-.022-.289-.244.377-.038.034-.003.013-.032.142-.348.151.344.014.032.034.002.378.028-.282.251-.026.023.008.033.09.367-.326-.191-.03-.017-.029.018-.32.2zm-2.086 1.156l.08-.369.007-.033-.026-.022-.289-.244.377-.038.034-.003.013-.032.142-.348.151.344.014.032.034.002.378.028-.282.251-.026.023.008.033.09.367-.326-.19-.03-.018-.028.018-.321.2zm18.552 6.046l.08-.369.008-.033-.026-.022-.289-.244.377-.038.034-.003.013-.032.142-.348.151.344.014.032.034.002.378.028-.283.251-.025.023.008.033.09.367-.326-.19-.03-.018-.029.018-.32.2zm-2.371-.245l.08-.369.008-.033-.026-.023-.289-.243.377-.038.034-.003.013-.032.142-.349.151.345.014.032.034.002.378.028-.283.251-.025.023.008.033.09.367-.326-.191-.03-.017-.029.018-.32.2zm-2.38-.154l.08-.37.007-.033-.026-.022-.289-.244.377-.037.034-.004.013-.031.142-.349.151.345.014.031.034.003.378.028-.282.25-.026.024.008.033.09.367-.326-.191-.03-.018-.029.018-.32.2zm-2.385-.044l.08-.37.007-.033-.026-.022-.289-.244.377-.037.035-.004.012-.031.142-.349.151.345.014.031.034.003.378.028-.282.25-.026.024.008.033.09.367-.326-.191-.03-.018-.028.018-.321.2zm-2.383.096l.08-.37.007-.033-.026-.022-.288-.244.377-.038.034-.003.013-.032.142-.348.15.345.014.031.034.003.378.027-.282.252-.026.022.008.034.09.366-.326-.19-.03-.018-.028.018-.321.2zm-2.369.273l.08-.37.007-.032-.026-.023-.289-.243.378-.038.034-.004.012-.031.142-.349.151.345.014.031.034.003.378.028-.282.251-.026.023.008.033.09.367-.326-.191-.03-.017-.028.018-.321.199zm-2.33.501l.08-.37.007-.033-.026-.022-.289-.243.377-.038.034-.003.013-.032.142-.349.151.345.014.031.034.003.378.028-.282.251-.026.023.008.033.09.367-.326-.191-.03-.017-.028.018-.321.199zm-2.25.794l.08-.37.007-.033-.026-.022-.289-.244.377-.037.034-.004.013-.031.142-.349.151.345.014.031.034.003.378.028-.282.251-.026.023.008.033.09.367-.326-.191-.03-.017-.028.018-.321.199zM5.059 22.94l.08-.369.007-.033-.026-.022-.289-.244.377-.038.034-.003.013-.032.142-.348.151.344.014.032.034.002.378.028-.282.251-.026.023.008.033.09.367-.326-.19-.03-.018-.028.018-.321.2z" fill="#fff" stroke="#002664" stroke-width=".114"/><path d="M1.5 2.5v59" stroke="#002664"/><circle cx="1.5" cy="1.5" r="1" fill="#002664" stroke="#002664"/></svg>