<svg width="20" height="21" fill="none" xmlns="http://www.w3.org/2000/svg"><mask id="mask0_2201_89" style="mask-type:alpha" maskUnits="userSpaceOnUse" x="0" y="0" width="20" height="21"><path fill="#D9D9D9" d="M0 .5h20v20H0z"/></mask><g mask="url(#mask0_2201_89)"><path d="M15.472 17.063a12.297 12.297 0 01-4.369-1.2 13.828 13.828 0 01-3.796-2.715 13.638 13.638 0 01-2.69-3.786 12.764 12.764 0 01-1.2-4.354.955.955 0 01.256-.766.967.967 0 01.744-.325h2.176c.253 0 .47.076.651.227.182.15.308.348.38.592l.436 1.743c.033.186.023.368-.031.545a.942.942 0 01-.264.433L5.84 9.33c.31.582.654 1.129 1.03 1.642.378.512.791.992 1.24 1.438a12.492 12.492 0 003.107 2.265l1.974-1.928a.858.858 0 01.4-.243c.152-.041.32-.047.506-.02l1.668.367c.252.07.452.198.598.385.147.187.22.41.22.667v2.16a.953.953 0 01-.335.744.985.985 0 01-.776.256zM5.353 8.273l1.57-1.507a.149.149 0 00.053-.088.195.195 0 00-.004-.104l-.366-1.445a.172.172 0 00-.056-.097A.162.162 0 006.446 5h-1.8a.109.109 0 00-.08.032.109.109 0 00-.032.08c.043.528.136 1.055.28 1.58.144.525.323 1.052.54 1.58zm6.958 6.91a7.87 7.87 0 001.563.5c.544.113 1.048.197 1.514.25a.109.109 0 00.113-.112v-1.795a.161.161 0 00-.032-.104.172.172 0 00-.097-.056l-1.354-.294a.132.132 0 00-.084-.004.204.204 0 00-.076.053l-1.547 1.562z" fill="#181818"/></g></svg>