<svg width="16" height="17" fill="none" xmlns="http://www.w3.org/2000/svg"><path d="M13.776 13.014s-.772.759-.962.981c-.308.33-.671.485-1.148.485-.046 0-.094 0-.14-.004-.907-.057-1.75-.41-2.382-.713a13.557 13.557 0 01-4.506-3.522C3.597 8.99 2.901 7.831 2.44 6.588c-.284-.759-.388-1.35-.342-1.907.03-.357.168-.652.421-.905l1.041-1.04c.15-.14.309-.215.464-.215.193 0 .348.115.446.213l.01.009c.185.174.363.353.549.545.094.098.192.195.29.296l.833.832c.324.323.324.621 0 .944-.088.089-.174.177-.262.262-.257.262-.055.061-.32.299-.007.006-.013.009-.016.015-.263.262-.214.518-.159.692l.01.027c.216.524.521 1.018.985 1.606l.004.003c.842 1.036 1.73 1.843 2.71 2.462.126.079.254.143.376.204.11.055.214.107.303.162.012.006.024.015.036.02a.663.663 0 00.302.077c.254 0 .413-.159.464-.21l.599-.597c.104-.104.269-.229.461-.229.19 0 .345.119.44.222l.006.007 1.682 1.678c.315.311.003.954.003.954z" stroke="#181818" stroke-width="1.333" stroke-linecap="round" stroke-linejoin="round"/></svg>