<svg width="52" height="62" fill="none" xmlns="http://www.w3.org/2000/svg"><path d="M2 45l4-6" stroke="#F8F8F8"/><path d="M25.795 7.127C11.929 5.673 4.532 8.676 2.566 10.359v2.54c1.966-1.683 9.363-4.686 23.229-3.232C39.66 11.121 48.709 6.19 51.5 3.54V1c-2.791 2.648-11.84 7.581-25.705 6.127z" fill="#F8F8F8"/><path d="M2.566 15.44v2.54c1.966-1.684 9.363-4.687 23.229-3.232C39.66 16.202 48.709 11.269 51.5 8.62V6.08c-2.791 2.648-11.839 7.58-25.705 6.126-13.866-1.454-21.263 1.55-23.229 3.232z" fill="#F8F8F8"/><path d="M2.566 20.52v2.54c1.966-1.683 9.363-4.686 23.229-3.232C39.66 21.282 48.709 16.35 51.5 13.701v-2.54c-2.791 2.648-11.839 7.581-25.705 6.127-13.866-1.454-21.263 1.549-23.229 3.232z" fill="#F8F8F8"/><path d="M2.566 25.6v2.54c1.966-1.683 9.363-4.686 23.229-3.231C39.66 26.363 48.709 21.43 51.5 18.782v-2.54c-2.791 2.648-11.839 7.58-25.705 6.127C11.929 20.913 4.532 23.916 2.566 25.6z" fill="#F8F8F8"/><path d="M2.566 30.68v2.407c1.966-1.659 9.363-4.619 23.229-3.185 13.866 1.433 22.914-3.43 25.705-6.04v-2.54c-2.791 2.648-11.839 7.581-25.705 6.127-13.866-1.454-21.263 1.548-23.229 3.232z" fill="#F8F8F8"/><path d="M2.566 35.628V38.3c1.966-1.683 9.363-4.686 23.229-3.231C39.66 36.524 48.709 31.59 51.5 28.943v-2.54c-2.791 2.61-11.839 7.473-25.705 6.039-13.866-1.434-21.263 1.526-23.229 3.186z" fill="#F8F8F8"/><path d="M2.566 10.359c1.966-1.683 9.363-4.686 23.229-3.232C39.66 8.581 48.709 3.648 51.5 1M2.566 10.359v30.483c1.966-1.684 9.363-4.686 23.229-3.232 13.865 1.454 22.914-3.48 25.705-6.127M2.566 10.359v2.54c1.966-1.683 9.363-4.686 23.229-3.232C39.66 11.121 48.709 6.19 51.5 3.54V1m0 0v30.55M2.566 15.44c1.966-1.684 9.363-4.687 23.229-3.232C39.66 13.662 48.709 8.727 51.5 6.08v2.54c-2.791 2.649-11.839 7.582-25.705 6.128-13.866-1.455-21.263 1.548-23.229 3.232v-2.54zm0 5.08c1.966-1.683 9.363-4.686 23.229-3.232 13.866 1.454 22.914-3.479 25.705-6.127v2.54c-2.791 2.648-11.839 7.581-25.705 6.127-13.866-1.454-21.263 1.549-23.229 3.232v-2.54zm0 5.08c1.966-1.683 9.363-4.686 23.229-3.232C39.66 23.824 48.709 18.89 51.5 16.242v2.54c-2.791 2.649-11.839 7.582-25.705 6.128-13.866-1.455-21.263 1.548-23.229 3.232V25.6zm0 5.08c1.966-1.683 9.363-4.685 23.229-3.231C39.66 28.903 48.709 23.97 51.5 21.322v2.54c-2.791 2.61-11.839 7.473-25.705 6.04-13.866-1.434-21.263 1.526-23.229 3.185v-2.406zm0 4.948c1.966-1.66 9.363-4.62 23.229-3.186 13.866 1.434 22.914-3.43 25.705-6.04v2.54c-2.791 2.649-11.839 7.582-25.705 6.128-13.866-1.455-21.263 1.548-23.229 3.23v-2.673z" stroke="#F8F8F8" stroke-width=".134"/><path d="M2.567 28.166v-17.84C5.16 8.446 8.6 7.359 12.724 6.906c4.123-.455 8.927-.276 14.243.37v17.748c-10.578-.714-16.286-.873-24.4 3.142z" fill="#F8F8F8" stroke="#F8F8F8" stroke-width=".134"/><path d="M24.807 9.607l.096-.503-.4-.32.509-.065.18-.477.217.462.513.024-.374.35.135.494-.448-.247-.428.282zm-2.361-.255l.095-.503-.4-.32.51-.065.18-.477.217.462.512.024-.373.35.135.494-.449-.247-.427.282zm-2.379-.182l.095-.504-.4-.32.51-.064.18-.478.217.462.512.024-.373.35.135.495-.449-.247-.427.281zm-2.383-.093l.096-.502-.4-.32.509-.065.18-.478.217.462.513.025-.374.35.135.494-.448-.247-.428.281zm-2.383.02l.096-.503-.4-.32.509-.064.18-.478.217.462.513.024-.374.35.135.494-.448-.247-.428.282zm-2.381.159l.096-.503-.4-.32.51-.064.18-.478.216.462.513.024-.373.35.134.495-.448-.247-.428.281zm-2.361.336l.096-.503-.4-.32.509-.064.18-.478.217.462.513.024-.374.35.135.495-.448-.247-.428.281zm-2.316.564l.095-.503-.4-.32.51-.065.18-.478.217.463.512.024-.373.35.135.494-.449-.247-.427.282zm-2.227.852l.096-.503-.4-.32.509-.064.18-.478.217.462.513.024-.374.35.135.495-.448-.247-.428.281zM3.961 12.22l.096-.503-.4-.32.51-.064.18-.478.216.462.513.024-.374.35.135.494-.448-.247-.428.282zm20.846 5.81l.096-.503-.4-.32.509-.065.18-.478.217.462.513.025-.374.35.135.494-.448-.247-.428.282zm-2.361-.255l.095-.503-.4-.32.51-.065.18-.477.217.462.512.024-.373.35.135.494-.449-.247-.427.282zm-2.379-.183l.095-.503-.4-.32.51-.064.18-.478.217.462.512.024-.373.35.135.495-.449-.247-.427.281zm-2.383-.092l.096-.503-.4-.32.509-.064.18-.478.217.462.513.024-.374.35.135.495-.448-.247-.428.281zm-2.383.02l.096-.503-.4-.32.509-.064.18-.478.217.462.513.024-.374.35.135.494-.448-.247-.428.282zm-2.381.159l.096-.503-.4-.32.51-.064.18-.478.216.462.513.024-.373.35.134.494-.448-.246-.428.281zm-2.361.336l.096-.503-.4-.32.509-.064.18-.478.217.462.513.024-.374.35.135.494-.448-.247-.428.282zm-2.316.563l.095-.502-.4-.32.51-.065.18-.478.217.462.512.024-.373.351.135.494-.449-.247-.427.281zm-2.227.853l.096-.503-.4-.32.509-.064.18-.478.217.462.513.024-.374.35.135.494-.448-.247-.428.282zm-2.055 1.212l.096-.503-.4-.32.51-.064.18-.478.216.462.513.024-.374.35.135.494-.448-.247-.428.282zm20.846-5.287l.096-.503-.4-.32.509-.065.18-.477.217.462.513.024-.374.35.135.494-.448-.247-.428.282zm-2.361-.256l.095-.502-.4-.32.51-.065.18-.477.217.462.512.024-.373.35.135.494-.449-.247-.427.282zm-2.379-.182l.095-.503-.4-.32.51-.064.18-.478.217.462.512.024-.373.35.135.495-.449-.247-.427.281zm-2.383-.092l.096-.503-.4-.32.509-.064.18-.478.217.462.513.025-.374.35.135.494-.448-.247-.428.281zm-2.383.02l.096-.503-.4-.32.509-.064.18-.478.217.462.513.024-.374.35.135.494-.448-.246-.428.281zm-2.381.159l.096-.503-.4-.32.51-.064.18-.478.216.462.513.024-.373.35.134.495-.448-.247-.428.281zm-2.361.336l.096-.503-.4-.32.509-.064.18-.478.217.462.513.024-.374.35.135.495-.448-.247-.428.281zm-2.316.564l.095-.503-.4-.32.51-.065.18-.478.217.463.512.024-.373.35.135.494-.449-.247-.427.282zm-2.227.852l.096-.503-.4-.32.509-.064.18-.478.217.462.513.024-.374.35.135.495-.448-.247-.428.281zM3.961 17.97l.096-.504-.4-.32.51-.064.18-.478.216.462.513.024-.374.35.135.494-.448-.247-.428.282zm20.846 5.809l.096-.503-.4-.32.509-.065.18-.478.217.463.513.024-.374.35.135.494-.448-.247-.428.282zm-2.361-.255l.095-.503-.4-.32.51-.065.18-.477.217.462.512.024-.373.35.135.494-.449-.247-.427.282zm-2.379-.182l.095-.503-.4-.32.51-.064.18-.478.217.462.512.024-.373.35.135.495-.449-.247-.427.281zm-2.383-.092l.096-.504-.4-.32.509-.064.18-.478.217.462.513.024-.374.35.135.495-.448-.247-.428.281zm-2.383.019l.096-.503-.4-.32.509-.065.18-.477.217.462.513.024-.374.35.135.494-.448-.247-.428.282zm-2.381.159l.096-.503-.4-.32.51-.064.18-.478.216.462.513.024-.373.35.134.494-.448-.247-.428.282zm-2.361.336l.096-.503-.4-.32.509-.064.18-.478.217.462.513.024-.374.35.135.494-.448-.247-.428.282zm-2.316.564l.095-.503-.4-.32.51-.065.18-.478.217.462.512.025-.373.35.135.494-.449-.247-.427.282zm-2.227.852l.096-.503-.4-.32.509-.064.18-.478.217.462.513.024-.374.35.135.494-.448-.247-.428.282zm-2.055 1.212l.096-.503-.4-.32.51-.064.18-.478.216.462.513.024-.374.35.135.494-.448-.247-.428.282zM23.527 12.26l.11-.5-.392-.331.51-.051.193-.473.205.468.512.037-.383.34.122.498-.442-.259-.435.27zm-2.371-.246l.11-.5-.392-.33.51-.051.193-.473.205.467.512.038-.383.34.122.498-.442-.259-.435.27zm-2.381-.154l.11-.5-.392-.33.51-.052.193-.473.205.468.512.038-.383.34.122.498-.442-.26-.435.271zm-2.385-.044l.11-.5-.392-.33.51-.052.194-.473.204.468.512.038-.383.34.122.498-.441-.26-.435.271zm-2.382.096l.109-.5-.392-.33.511-.052.193-.473.205.468.511.038-.382.34.121.497-.441-.258-.435.27zm-2.369.273l.109-.5-.392-.33.51-.051.194-.473.204.467.512.038-.382.34.121.498-.441-.259-.435.27zm-2.33.501l.108-.5-.39-.33.51-.051.192-.473.205.467.512.038-.383.34.122.498-.442-.259-.434.27zm-2.25.794l.108-.5-.39-.33.51-.052.192-.472.205.467.512.038-.383.34.122.498-.441-.259-.435.27zm-2.084 1.156l.108-.5-.39-.33.51-.051.192-.473.205.468.512.037-.382.34.121.498-.441-.259-.435.27zm18.552 6.046l.11-.5-.392-.33.51-.051.193-.473.205.468.512.037-.383.34.122.498-.442-.259-.435.27zm-2.371-.245l.11-.5-.392-.33.51-.052.193-.472.205.467.512.038-.383.34.122.498-.442-.259-.435.27zm-2.381-.154l.11-.5-.392-.33.51-.052.193-.473.205.468.512.038-.383.34.122.497-.442-.258-.435.27zm-2.385-.044l.11-.5-.392-.33.51-.052.194-.473.204.468.512.038-.383.34.122.498-.441-.26-.435.27zm-2.382.096l.109-.5-.392-.331.511-.051.193-.473.205.468.511.038-.382.34.121.497-.441-.259-.435.27zm-2.369.273l.109-.5-.392-.33.51-.052.194-.473.204.468.512.038-.382.34.121.498-.441-.26-.435.271zm-2.33.501l.108-.5-.39-.33.51-.052.192-.473.205.468.512.038-.383.34.122.498-.442-.26-.434.271zm-2.25.794l.108-.5-.39-.33.51-.052.192-.473.205.468.512.038-.383.34.122.498-.441-.26-.435.271zM4.975 23.06l.108-.501-.39-.33.51-.051.192-.473.205.467.512.038-.382.34.121.498-.441-.259-.435.27z" fill="#002664"/><path d="M1.5 2.5v59" stroke="#F8F8F8"/><circle cx="1.5" cy="1.5" r="1" fill="#F8F8F8" stroke="#F8F8F8"/></svg>