<svg width="120" height="120" viewBox="0 0 120 120" fill="none" xmlns="http://www.w3.org/2000/svg">
<rect x="0.5" y="0.5" width="119" height="119" rx="31.5" fill="#F8F8F8"/>
<rect x="0.5" y="0.5" width="119" height="119" rx="31.5" stroke="#C7C7C7"/>
<path d="M33 78.5L40 68" stroke="#002664" stroke-width="2"/>
<path d="M62.4573 33.6917C45.5471 31.9181 36.5265 35.5802 34.1299 37.6329V40.7308C36.5265 38.678 45.5471 35.016 62.4573 36.7895C79.3675 38.5631 90.4013 32.5472 93.8045 29.3176V26.2197C90.4013 29.4494 79.3675 35.4652 62.4573 33.6917Z" fill="#002664"/>
<path d="M34.1299 43.8286V46.9265C36.5265 44.8738 45.5471 41.2117 62.4573 42.9852C79.3675 44.7588 90.4013 38.7429 93.8045 35.5133V32.4154C90.4013 35.6451 79.3675 41.6609 62.4573 39.8874C45.5471 38.1138 36.5265 41.7759 34.1299 43.8286Z" fill="#002664"/>
<path d="M34.1299 50.0243V53.1222C36.5265 51.0695 45.5471 47.4074 62.4573 49.181C79.3675 50.9545 90.4013 44.9387 93.8045 41.709V38.6112C90.4013 41.8408 79.3675 47.8567 62.4573 46.0831C45.5471 44.3095 36.5265 47.9716 34.1299 50.0243Z" fill="#002664"/>
<path d="M34.1299 56.2201V59.3179C36.5265 57.2652 45.5471 53.6031 62.4573 55.3767C79.3675 57.1502 90.4013 51.1344 93.8045 47.9048V44.8069C90.4013 48.0365 79.3675 54.0524 62.4573 52.2788C45.5471 50.5053 36.5265 54.1673 34.1299 56.2201Z" fill="#002664"/>
<path d="M34.1299 62.4158V65.3506C36.5265 63.3272 45.5471 59.7174 62.4573 61.4657C79.3675 63.2139 90.4013 57.284 93.8045 54.1005V51.0026C90.4013 54.2322 79.3675 60.2481 62.4573 58.4745C45.5471 56.701 36.5265 60.3631 34.1299 62.4158Z" fill="#002664"/>
<path d="M34.1299 68.4485V71.7094C36.5265 69.6566 45.5471 65.9946 62.4573 67.7681C79.3675 69.5417 90.4013 63.5258 93.8045 60.2962V57.1983C90.4013 60.3818 79.3675 66.3117 62.4573 64.5635C45.5471 62.8153 36.5265 66.4251 34.1299 68.4485Z" fill="#002664"/>
<path d="M34.1304 59.3493V37.5927C37.2927 35.2993 41.4877 33.9745 46.5173 33.421C51.5458 32.8676 57.4032 33.0857 63.8861 33.8733V55.517C50.9867 54.646 44.0259 54.4524 34.1304 59.3493Z" fill="#002664" stroke="#002664" stroke-width="0.163045"/>
<path d="M61.2523 36.7157L61.3689 36.1024L60.8812 35.7122L61.502 35.6335L61.7216 35.0508L61.9865 35.6144L62.6115 35.6439L62.1562 36.0713L62.3208 36.6735L61.7738 36.3724L61.2523 36.7157Z" fill="white"/>
<path d="M58.3714 36.4047L58.488 35.7914L58.0003 35.4012L58.6211 35.3225L58.8408 34.7398L59.1056 35.3034L59.7307 35.3329L59.2753 35.7603L59.4399 36.3625L58.8929 36.0613L58.3714 36.4047Z" fill="white"/>
<path d="M55.4715 36.183L55.5881 35.5697L55.1004 35.1795L55.7212 35.1008L55.9409 34.5181L56.2057 35.0817L56.8308 35.1112L56.3754 35.5386L56.54 36.1408L55.993 35.8396L55.4715 36.183Z" fill="white"/>
<path d="M52.5657 36.0712L52.6823 35.4579L52.1947 35.0677L52.8155 34.989L53.0351 34.4063L53.3 34.9699L53.925 34.9994L53.4696 35.4268L53.6342 36.029L53.0873 35.7278L52.5657 36.0712Z" fill="white"/>
<path d="M49.6585 36.0951L49.7751 35.4818L49.2875 35.0916L49.9082 35.0129L50.1279 34.4302L50.3927 34.9938L51.0178 35.0233L50.5624 35.4507L50.727 36.0529L50.18 35.7518L49.6585 36.0951Z" fill="white"/>
<path d="M46.7567 36.2885L46.8733 35.6751L46.3856 35.285L47.0064 35.2063L47.226 34.6236L47.4909 35.1872L48.1159 35.2167L47.6606 35.6441L47.8251 36.2463L47.2782 35.9451L46.7567 36.2885Z" fill="white"/>
<path d="M43.8782 36.6981L43.9948 36.0848L43.5072 35.6946L44.128 35.616L44.3476 35.0332L44.6125 35.5968L45.2375 35.6263L44.7821 36.0537L44.9467 36.656L44.3998 36.3548L43.8782 36.6981Z" fill="white"/>
<path d="M41.0516 37.3842L41.1682 36.7708L40.6805 36.3807L41.3013 36.302L41.5209 35.7193L41.7858 36.2829L42.4109 36.3124L41.9555 36.7398L42.1201 37.342L41.5731 37.0408L41.0516 37.3842Z" fill="white"/>
<path d="M38.3363 38.4257L38.4528 37.8124L37.9652 37.4222L38.586 37.3435L38.8056 36.7608L39.0705 37.3244L39.6955 37.3539L39.2402 37.7813L39.4047 38.3835L38.8578 38.0823L38.3363 38.4257Z" fill="white"/>
<path d="M35.8304 39.9022L35.947 39.2889L35.4593 38.8987L36.0801 38.8201L36.2997 38.2373L36.5646 38.8009L37.1897 38.8304L36.7343 39.2578L36.8989 39.8601L36.3519 39.5589L35.8304 39.9022Z" fill="white"/>
<path d="M61.2523 46.9882L61.3689 46.3749L60.8812 45.9847L61.502 45.906L61.7216 45.3233L61.9865 45.8869L62.6115 45.9164L62.1562 46.3438L62.3208 46.946L61.7738 46.6448L61.2523 46.9882Z" fill="white"/>
<path d="M58.3714 46.6767L58.488 46.0633L58.0003 45.6731L58.6211 45.5945L58.8408 45.0117L59.1056 45.5754L59.7307 45.6048L59.2753 46.0322L59.4399 46.6345L58.8929 46.3333L58.3714 46.6767Z" fill="white"/>
<path d="M55.4715 46.455L55.5881 45.8416L55.1004 45.4515L55.7212 45.3728L55.9409 44.7901L56.2057 45.3537L56.8308 45.3832L56.3754 45.8106L56.54 46.4128L55.993 46.1116L55.4715 46.455Z" fill="white"/>
<path d="M52.5657 46.3432L52.6823 45.7298L52.1947 45.3397L52.8155 45.261L53.0351 44.6782L53.3 45.2419L53.925 45.2713L53.4696 45.6988L53.6342 46.301L53.0873 45.9998L52.5657 46.3432Z" fill="white"/>
<path d="M49.6585 46.3666L49.7751 45.7533L49.2875 45.3631L49.9082 45.2844L50.1279 44.7017L50.3927 45.2653L51.0178 45.2948L50.5624 45.7222L50.727 46.3244L50.18 46.0232L49.6585 46.3666Z" fill="white"/>
<path d="M46.7562 46.5604L46.8728 45.9471L46.3851 45.5569L47.0059 45.4783L47.2255 44.8955L47.4904 45.4591L48.1155 45.4886L47.6601 45.916L47.8247 46.5183L47.2777 46.2171L46.7562 46.5604Z" fill="white"/>
<path d="M43.8778 46.9696L43.9944 46.3563L43.5067 45.9661L44.1275 45.8875L44.3471 45.3047L44.612 45.8683L45.237 45.8978L44.7817 46.3252L44.9462 46.9274L44.3993 46.6263L43.8778 46.9696Z" fill="white"/>
<path d="M41.0516 47.6557L41.1682 47.0423L40.6805 46.6522L41.3013 46.5735L41.5209 45.9907L41.7858 46.5544L42.4109 46.5838L41.9555 47.0113L42.1201 47.6135L41.5731 47.3123L41.0516 47.6557Z" fill="white"/>
<path d="M38.3363 48.6977L38.4528 48.0843L37.9652 47.6941L38.586 47.6155L38.8056 47.0327L39.0705 47.5964L39.6955 47.6258L39.2402 48.0532L39.4047 48.6555L38.8578 48.3543L38.3363 48.6977Z" fill="white"/>
<path d="M35.8304 50.1742L35.947 49.5609L35.4593 49.1707L36.0801 49.092L36.2997 48.5093L36.5646 49.0729L37.1897 49.1024L36.7343 49.5298L36.8989 50.132L36.3519 49.8309L35.8304 50.1742Z" fill="white"/>
<path d="M61.2523 43.7265L61.3689 43.1131L60.8812 42.723L61.502 42.6443L61.7216 42.0615L61.9865 42.6252L62.6115 42.6546L62.1562 43.0821L62.3208 43.6843L61.7738 43.3831L61.2523 43.7265Z" fill="white"/>
<path d="M58.3714 43.4149L58.488 42.8016L58.0003 42.4114L58.6211 42.3328L58.8408 41.75L59.1056 42.3136L59.7307 42.3431L59.2753 42.7705L59.4399 43.3728L58.8929 43.0716L58.3714 43.4149Z" fill="white"/>
<path d="M55.4715 43.1933L55.5881 42.5799L55.1004 42.1897L55.7212 42.1111L55.9409 41.5283L56.2057 42.092L56.8308 42.1214L56.3754 42.5488L56.54 43.1511L55.993 42.8499L55.4715 43.1933Z" fill="white"/>
<path d="M52.5657 43.0814L52.6823 42.4681L52.1947 42.0779L52.8155 41.9993L53.0351 41.4165L53.3 41.9801L53.925 42.0096L53.4696 42.437L53.6342 43.0393L53.0873 42.7381L52.5657 43.0814Z" fill="white"/>
<path d="M49.6585 43.1059L49.7751 42.4925L49.2875 42.1023L49.9082 42.0237L50.1279 41.4409L50.3927 42.0046L51.0178 42.034L50.5624 42.4614L50.727 43.0637L50.18 42.7625L49.6585 43.1059Z" fill="white"/>
<path d="M46.7562 43.2987L46.8728 42.6854L46.3851 42.2952L47.0059 42.2166L47.2255 41.6338L47.4904 42.1974L48.1155 42.2269L47.6601 42.6543L47.8247 43.2566L47.2777 42.9554L46.7562 43.2987Z" fill="white"/>
<path d="M43.8778 43.7084L43.9944 43.0951L43.5067 42.7049L44.1275 42.6262L44.3471 42.0435L44.612 42.6071L45.237 42.6366L44.7817 43.064L44.9462 43.6662L44.3993 43.365L43.8778 43.7084Z" fill="white"/>
<path d="M41.0516 44.3949L41.1682 43.7816L40.6805 43.3914L41.3013 43.3127L41.5209 42.73L41.7858 43.2936L42.4109 43.3231L41.9555 43.7505L42.1201 44.3527L41.5731 44.0516L41.0516 44.3949Z" fill="white"/>
<path d="M38.3363 45.4359L38.4528 44.8226L37.9652 44.4324L38.586 44.3538L38.8056 43.771L39.0705 44.3346L39.6955 44.3641L39.2402 44.7915L39.4047 45.3938L38.8578 45.0926L38.3363 45.4359Z" fill="white"/>
<path d="M35.8304 46.9125L35.947 46.2992L35.4593 45.909L36.0801 45.8303L36.2997 45.2476L36.5646 45.8112L37.1897 45.8407L36.7343 46.2681L36.8989 46.8703L36.3519 46.5691L35.8304 46.9125Z" fill="white"/>
<path d="M61.2532 53.9989L61.3698 53.3856L60.8822 52.9954L61.503 52.9167L61.7226 52.334L61.9875 52.8976L62.6125 52.9271L62.1571 53.3545L62.3217 53.9567L61.7748 53.6556L61.2532 53.9989Z" fill="white"/>
<path d="M58.3719 53.6874L58.4885 53.0741L58.0008 52.6839L58.6216 52.6052L58.8412 52.0225L59.1061 52.5861L59.7312 52.6156L59.2758 53.043L59.4404 53.6452L58.8934 53.344L58.3719 53.6874Z" fill="white"/>
<path d="M55.4725 53.4657L55.5891 52.8524L55.1014 52.4622L55.7222 52.3835L55.9418 51.8008L56.2067 52.3644L56.8318 52.3939L56.3764 52.8213L56.541 53.4235L55.994 53.1224L55.4725 53.4657Z" fill="white"/>
<path d="M52.5662 53.3539L52.6828 52.7406L52.1952 52.3504L52.816 52.2717L53.0356 51.689L53.3005 52.2526L53.9255 52.2821L53.4701 52.7095L53.6347 53.3117L53.0878 53.0105L52.5662 53.3539Z" fill="white"/>
<path d="M49.6595 53.3783L49.7761 52.765L49.2884 52.3748L49.9092 52.2961L50.1288 51.7134L50.3937 52.277L51.0188 52.3065L50.5634 52.7339L50.728 53.3361L50.181 53.035L49.6595 53.3783Z" fill="white"/>
<path d="M46.7567 53.5712L46.8733 52.9579L46.3856 52.5677L47.0064 52.489L47.226 51.9063L47.4909 52.4699L48.1159 52.4994L47.6606 52.9268L47.8251 53.529L47.2782 53.2278L46.7567 53.5712Z" fill="white"/>
<path d="M43.8782 53.9809L43.9948 53.3675L43.5072 52.9773L44.128 52.8987L44.3476 52.3159L44.6125 52.8796L45.2375 52.909L44.7821 53.3364L44.9467 53.9387L44.3998 53.6375L43.8782 53.9809Z" fill="white"/>
<path d="M41.0526 54.6674L41.1692 54.054L40.6815 53.6639L41.3023 53.5852L41.5219 53.0025L41.7868 53.5661L42.4118 53.5956L41.9565 54.023L42.121 54.6252L41.5741 54.324L41.0526 54.6674Z" fill="white"/>
<path d="M38.3367 55.7084L38.4533 55.0951L37.9657 54.7049L38.5865 54.6262L38.8061 54.0435L39.071 54.6071L39.696 54.6366L39.2406 55.064L39.4052 55.6662L38.8583 55.365L38.3367 55.7084Z" fill="white"/>
<path d="M35.8314 57.185L35.948 56.5716L35.4603 56.1814L36.0811 56.1028L36.3007 55.52L36.5656 56.0837L37.1907 56.1131L36.7353 56.5405L36.8999 57.1428L36.3529 56.8416L35.8314 57.185Z" fill="white"/>
<path d="M59.6923 39.9517L59.8251 39.3417L59.348 38.9387L59.9706 38.8765L60.2056 38.2998L60.4555 38.8703L61.0795 38.9163L60.613 39.3315L60.7615 39.9379L60.2227 39.6223L59.6923 39.9517Z" fill="white"/>
<path d="M56.8002 39.6534L56.933 39.0433L56.4559 38.6404L57.0785 38.5782L57.3135 38.0015L57.5634 38.5719L58.1874 38.618L57.7209 39.0331L57.8694 39.6395L57.3306 39.324L56.8002 39.6534Z" fill="white"/>
<path d="M53.8984 39.4644L54.0312 38.8544L53.554 38.4514L54.1767 38.3892L54.4117 37.8125L54.6615 38.383L55.2856 38.429L54.819 38.8442L54.9676 39.4506L54.4288 39.135L53.8984 39.4644Z" fill="white"/>
<path d="M50.9897 39.4112L51.1225 38.8012L50.6453 38.3982L51.268 38.336L51.503 37.7593L51.7528 38.3297L52.3769 38.3758L51.9103 38.791L52.0589 39.3973L51.5201 39.0818L50.9897 39.4112Z" fill="white"/>
<path d="M48.0839 39.5274L48.2167 38.9174L47.7396 38.5144L48.3622 38.4522L48.5972 37.8755L48.8471 38.4459L49.4711 38.492L49.0046 38.9072L49.1531 39.5136L48.6143 39.198L48.0839 39.5274Z" fill="white"/>
<path d="M45.1957 39.8609L45.3285 39.2509L44.8514 38.8479L45.474 38.7857L45.709 38.209L45.9589 38.7794L46.5829 38.8255L46.1164 39.2407L46.2649 39.8471L45.7262 39.5315L45.1957 39.8609Z" fill="white"/>
<path d="M42.3525 40.4722L42.4853 39.8622L42.0081 39.4592L42.6308 39.397L42.8658 38.8203L43.1156 39.3908L43.7397 39.4368L43.2731 39.852L43.4217 40.4584L42.8829 40.1428L42.3525 40.4722Z" fill="white"/>
<path d="M39.6108 41.441L39.7436 40.8309L39.2664 40.428L39.8891 40.3658L40.1241 39.7891L40.3739 40.3595L40.998 40.4056L40.5314 40.8207L40.68 41.4271L40.1412 41.1116L39.6108 41.441Z" fill="white"/>
<path d="M37.0663 42.8511L37.1991 42.2411L36.722 41.8381L37.3446 41.776L37.5796 41.1992L37.8295 41.7697L38.4535 41.8157L37.987 42.2309L38.1356 42.8373L37.5968 42.5217L37.0663 42.8511Z" fill="white"/>
<path d="M59.6913 50.2227L59.8241 49.6127L59.347 49.2097L59.9696 49.1475L60.2046 48.5708L60.4545 49.1413L61.0785 49.1873L60.612 49.6025L60.7606 50.2089L60.2218 49.8933L59.6913 50.2227Z" fill="white"/>
<path d="M56.7997 49.9249L56.9325 49.3148L56.4554 48.9119L57.078 48.8497L57.313 48.273L57.5629 48.8434L58.1869 48.8894L57.7204 49.3046L57.8689 49.911L57.3302 49.5954L56.7997 49.9249Z" fill="white"/>
<path d="M53.8979 49.7354L54.0307 49.1254L53.5535 48.7224L54.1762 48.6602L54.4112 48.0835L54.661 48.654L55.2851 48.7L54.8185 49.1152L54.9671 49.7216L54.4283 49.406L53.8979 49.7354Z" fill="white"/>
<path d="M50.9897 49.6822L51.1225 49.0722L50.6453 48.6692L51.268 48.607L51.503 48.0303L51.7528 48.6007L52.3769 48.6468L51.9103 49.062L52.0589 49.6683L51.5201 49.3528L50.9897 49.6822Z" fill="white"/>
<path d="M48.0834 49.7989L48.2162 49.1889L47.7391 48.7859L48.3617 48.7237L48.5967 48.147L48.8466 48.7174L49.4706 48.7635L49.0041 49.1787L49.1526 49.785L48.6139 49.4695L48.0834 49.7989Z" fill="white"/>
<path d="M45.1957 50.1319L45.3285 49.5219L44.8514 49.1189L45.474 49.0567L45.709 48.48L45.9589 49.0504L46.5829 49.0965L46.1164 49.5117L46.2649 50.118L45.7262 49.8025L45.1957 50.1319Z" fill="white"/>
<path d="M42.3515 50.7432L42.4843 50.1332L42.0071 49.7302L42.6298 49.668L42.8648 49.0913L43.1146 49.6618L43.7387 49.7078L43.2721 50.123L43.4207 50.7294L42.8819 50.4138L42.3515 50.7432Z" fill="white"/>
<path d="M39.6098 51.712L39.7426 51.1019L39.2655 50.699L39.8881 50.6368L40.1231 50.0601L40.3729 50.6305L40.997 50.6766L40.5304 51.0917L40.679 51.6981L40.1402 51.3825L39.6098 51.712Z" fill="white"/>
<path d="M37.0663 53.1221L37.1991 52.5121L36.722 52.1091L37.3446 52.0469L37.5796 51.4702L37.8295 52.0407L38.4535 52.0867L37.987 52.5019L38.1356 53.1083L37.5968 52.7927L37.0663 53.1221Z" fill="white"/>
<path d="M32.8296 28.0488V100" stroke="#002664" stroke-width="3"/>
<circle cx="32.8293" cy="26.8293" r="1.5" fill="#002664" stroke="#002664" stroke-width="0.658537"/>
</svg>
