<svg width="120" height="120" viewBox="0 0 120 120" fill="none" xmlns="http://www.w3.org/2000/svg">
<rect x="0.5" y="0.5" width="119" height="119" rx="59.5" stroke="#002664"/>
<path d="M31.439 76.8781L36.317 69.561" stroke="#002664" stroke-width="1.21951"/>
<path d="M60.4573 30.6917C43.5471 28.9181 34.5265 32.5802 32.1299 34.6329V37.7308C34.5265 35.678 43.5471 32.016 60.4573 33.7895C77.3675 35.5631 88.4013 29.5472 91.8045 26.3176V23.2197C88.4013 26.4494 77.3675 32.4652 60.4573 30.6917Z" fill="#002664"/>
<path d="M32.1299 40.8286V43.9265C34.5265 41.8738 43.5471 38.2117 60.4573 39.9852C77.3675 41.7588 88.4013 35.7429 91.8045 32.5133V29.4154C88.4013 32.6451 77.3675 38.6609 60.4573 36.8874C43.5471 35.1138 34.5265 38.7759 32.1299 40.8286Z" fill="#002664"/>
<path d="M32.1299 47.0243V50.1222C34.5265 48.0695 43.5471 44.4074 60.4573 46.181C77.3675 47.9545 88.4013 41.9387 91.8045 38.709V35.6112C88.4013 38.8408 77.3675 44.8567 60.4573 43.0831C43.5471 41.3095 34.5265 44.9716 32.1299 47.0243Z" fill="#002664"/>
<path d="M32.1299 53.2201V56.3179C34.5265 54.2652 43.5471 50.6031 60.4573 52.3767C77.3675 54.1502 88.4013 48.1344 91.8045 44.9048V41.8069C88.4013 45.0365 77.3675 51.0524 60.4573 49.2788C43.5471 47.5053 34.5265 51.1673 32.1299 53.2201Z" fill="#002664"/>
<path d="M32.1299 59.4158V62.3506C34.5265 60.3272 43.5471 56.7174 60.4573 58.4657C77.3675 60.2139 88.4013 54.284 91.8045 51.1005V48.0026C88.4013 51.2322 77.3675 57.2481 60.4573 55.4745C43.5471 53.701 34.5265 57.3631 32.1299 59.4158Z" fill="#002664"/>
<path d="M32.1299 65.4485V68.7094C34.5265 66.6566 43.5471 62.9946 60.4573 64.7681C77.3675 66.5417 88.4013 60.5258 91.8045 57.2962V54.1983C88.4013 57.3818 77.3675 63.3117 60.4573 61.5635C43.5471 59.8153 34.5265 63.4251 32.1299 65.4485Z" fill="#002664"/>
<path d="M32.1299 34.6329C34.5265 32.5802 43.5471 28.9181 60.4573 30.6917C77.3675 32.4652 88.4013 26.4494 91.8045 23.2197M32.1299 34.6329V71.8072C34.5265 69.7545 43.5471 66.0924 60.4573 67.866C77.3675 69.6395 88.4013 63.6237 91.8045 60.3941M32.1299 34.6329V37.7308C34.5265 35.678 43.5471 32.016 60.4573 33.7895C77.3675 35.5631 88.4013 29.5472 91.8045 26.3176V23.2197M91.8045 23.2197V60.4756M32.1299 40.8286C34.5265 38.7759 43.5471 35.1138 60.4573 36.8874C77.3675 38.6609 88.4013 32.6451 91.8045 29.4154V32.5133C88.4013 35.7429 77.3675 41.7588 60.4573 39.9852C43.5471 38.2117 34.5265 41.8738 32.1299 43.9265V40.8286ZM32.1299 47.0243C34.5265 44.9716 43.5471 41.3095 60.4573 43.0831C77.3675 44.8567 88.4013 38.8408 91.8045 35.6112V38.709C88.4013 41.9387 77.3675 47.9545 60.4573 46.181C43.5471 44.4074 34.5265 48.0695 32.1299 50.1222V47.0243ZM32.1299 53.2201C34.5265 51.1673 43.5471 47.5053 60.4573 49.2788C77.3675 51.0524 88.4013 45.0365 91.8045 41.8069V44.9048C88.4013 48.1344 77.3675 54.1502 60.4573 52.3767C43.5471 50.6031 34.5265 54.2652 32.1299 56.3179V53.2201ZM32.1299 59.4158C34.5265 57.3631 43.5471 53.701 60.4573 55.4745C77.3675 57.2481 88.4013 51.2322 91.8045 48.0026V51.1005C88.4013 54.284 77.3675 60.2139 60.4573 58.4657C43.5471 56.7174 34.5265 60.3272 32.1299 62.3506V59.4158ZM32.1299 65.4485C34.5265 63.4251 43.5471 59.8153 60.4573 61.5635C77.3675 63.3117 88.4013 57.3818 91.8045 54.1983V57.2962C88.4013 60.5258 77.3675 66.5417 60.4573 64.7681C43.5471 62.9946 34.5265 66.6566 32.1299 68.7094V65.4485Z" stroke="#002664" stroke-width="0.163045"/>
<path d="M32.1304 56.3493V34.5927C35.2927 32.2993 39.4877 30.9745 44.5173 30.421C49.5458 29.8676 55.4032 30.0857 61.8861 30.8733V52.517C48.9867 51.646 42.0259 51.4524 32.1304 56.3493Z" fill="#002664" stroke="#002664" stroke-width="0.163045"/>
<path d="M59.3509 33.5679L59.4369 33.1153L59.4447 33.0744L59.4121 33.0483L59.0523 32.7604L59.5107 32.7023L59.5521 32.697L59.5668 32.658L59.7286 32.2286L59.9238 32.6439L59.9415 32.6816L59.9832 32.6836L60.4448 32.7054L60.1088 33.0208L60.0784 33.0493L60.0894 33.0896L60.2108 33.5339L59.8072 33.3117L59.7706 33.2915L59.7357 33.3145L59.3509 33.5679Z" fill="white" stroke="#002664" stroke-width="0.138535"/>
<path d="M56.47 33.2568L56.5561 32.8043L56.5638 32.7633L56.5313 32.7373L56.1714 32.4493L56.6298 32.3912L56.6712 32.386L56.686 32.3469L56.8478 31.9176L57.0429 32.3328L57.0607 32.3706L57.1024 32.3726L57.564 32.3943L57.2279 32.7098L57.1975 32.7383L57.2085 32.7785L57.3299 33.2229L56.9263 33.0006L56.8897 32.9805L56.8548 33.0035L56.47 33.2568Z" fill="white" stroke="#002664" stroke-width="0.138535"/>
<path d="M53.5701 33.0351L53.6562 32.5826L53.6639 32.5416L53.6314 32.5156L53.2715 32.2276L53.7299 32.1695L53.7713 32.1643L53.7861 32.1253L53.9479 31.6959L54.143 32.1112L54.1608 32.1489L54.2025 32.1509L54.6641 32.1727L54.328 32.4881L54.2976 32.5166L54.3086 32.5569L54.43 33.0012L54.0264 32.779L53.9898 32.7588L53.9549 32.7818L53.5701 33.0351Z" fill="white" stroke="#002664" stroke-width="0.138535"/>
<path d="M50.6644 32.9233L50.7504 32.4708L50.7582 32.4298L50.7256 32.4038L50.3657 32.1158L50.8242 32.0577L50.8656 32.0525L50.8803 32.0134L51.0421 31.5841L51.2373 31.9994L51.255 32.0371L51.2967 32.0391L51.7583 32.0609L51.4222 32.3763L51.3918 32.4048L51.4028 32.445L51.5243 32.8894L51.1207 32.6671L51.0841 32.647L51.0492 32.67L50.6644 32.9233Z" fill="white" stroke="#002664" stroke-width="0.138535"/>
<path d="M47.7571 32.9473L47.8432 32.4947L47.851 32.4538L47.8184 32.4277L47.4585 32.1398L47.917 32.0817L47.9583 32.0764L47.9731 32.0374L48.1349 31.608L48.3301 32.0233L48.3478 32.061L48.3895 32.063L48.8511 32.0848L48.515 32.4002L48.4846 32.4287L48.4956 32.469L48.617 32.9133L48.2134 32.6911L48.1768 32.6709L48.1419 32.6939L47.7571 32.9473Z" fill="white" stroke="#002664" stroke-width="0.138535"/>
<path d="M44.8553 33.1406L44.9413 32.6881L44.9491 32.6471L44.9165 32.6211L44.5566 32.3331L45.0151 32.275L45.0565 32.2698L45.0712 32.2307L45.233 31.8014L45.4282 32.2166L45.4459 32.2544L45.4876 32.2564L45.9492 32.2781L45.6132 32.5936L45.5828 32.6221L45.5937 32.6623L45.7152 33.1067L45.3116 32.8844L45.275 32.8643L45.2401 32.8873L44.8553 33.1406Z" fill="white" stroke="#002664" stroke-width="0.138535"/>
<path d="M41.9769 33.5503L42.0629 33.0977L42.0707 33.0568L42.0381 33.0307L41.6782 32.7428L42.1367 32.6847L42.1781 32.6794L42.1928 32.6404L42.3546 32.211L42.5498 32.6263L42.5675 32.6641L42.6092 32.666L43.0708 32.6878L42.7347 33.0032L42.7043 33.0318L42.7153 33.072L42.8368 33.5163L42.4332 33.2941L42.3966 33.2739L42.3617 33.2969L41.9769 33.5503Z" fill="white" stroke="#002664" stroke-width="0.138535"/>
<path d="M39.1502 34.2363L39.2362 33.7838L39.244 33.7428L39.2115 33.7168L38.8516 33.4288L39.31 33.3707L39.3514 33.3655L39.3661 33.3264L39.528 32.8971L39.7231 33.3123L39.7409 33.3501L39.7825 33.3521L40.2441 33.3738L39.9081 33.6893L39.8777 33.7178L39.8887 33.758L40.0101 34.2024L39.6065 33.9801L39.5699 33.96L39.535 33.983L39.1502 34.2363Z" fill="white" stroke="#002664" stroke-width="0.138535"/>
<path d="M36.4349 35.2778L36.5209 34.8253L36.5287 34.7843L36.4961 34.7583L36.1362 34.4703L36.5947 34.4122L36.6361 34.407L36.6508 34.3679L36.8126 33.9386L37.0078 34.3538L37.0255 34.3916L37.0672 34.3936L37.5288 34.4153L37.1927 34.7308L37.1623 34.7593L37.1733 34.7995L37.2948 35.2439L36.8912 35.0216L36.8546 35.0015L36.8197 35.0245L36.4349 35.2778Z" fill="white" stroke="#002664" stroke-width="0.138535"/>
<path d="M33.929 36.7544L34.015 36.3018L34.0228 36.2609L33.9903 36.2348L33.6304 35.9469L34.0888 35.8888L34.1302 35.8835L34.1449 35.8445L34.3068 35.4151L34.5019 35.8304L34.5197 35.8682L34.5614 35.8701L35.023 35.8919L34.6869 36.2073L34.6565 36.2359L34.6675 36.2761L34.7889 36.7204L34.3853 36.4982L34.3487 36.478L34.3138 36.501L33.929 36.7544Z" fill="white" stroke="#002664" stroke-width="0.138535"/>
<path d="M59.3509 43.8403L59.4369 43.3878L59.4447 43.3468L59.4121 43.3208L59.0523 43.0328L59.5107 42.9747L59.5521 42.9695L59.5668 42.9304L59.7286 42.5011L59.9238 42.9163L59.9415 42.9541L59.9832 42.9561L60.4448 42.9778L60.1088 43.2933L60.0784 43.3218L60.0894 43.362L60.2108 43.8064L59.8072 43.5841L59.7706 43.564L59.7357 43.587L59.3509 43.8403Z" fill="white" stroke="#002664" stroke-width="0.138535"/>
<path d="M56.47 43.5288L56.5561 43.0763L56.5638 43.0353L56.5313 43.0092L56.1714 42.7213L56.6298 42.6632L56.6712 42.658L56.686 42.6189L56.8478 42.1895L57.0429 42.6048L57.0607 42.6426L57.1024 42.6445L57.564 42.6663L57.2279 42.9817L57.1975 43.0103L57.2085 43.0505L57.3299 43.4949L56.9263 43.2726L56.8897 43.2525L56.8548 43.2754L56.47 43.5288Z" fill="white" stroke="#002664" stroke-width="0.138535"/>
<path d="M53.5701 43.3071L53.6562 42.8546L53.6639 42.8136L53.6314 42.7876L53.2715 42.4996L53.7299 42.4415L53.7713 42.4363L53.7861 42.3972L53.9479 41.9679L54.143 42.3831L54.1608 42.4209L54.2025 42.4229L54.6641 42.4446L54.328 42.7601L54.2976 42.7886L54.3086 42.8288L54.43 43.2732L54.0264 43.0509L53.9898 43.0308L53.9549 43.0538L53.5701 43.3071Z" fill="white" stroke="#002664" stroke-width="0.138535"/>
<path d="M50.6644 43.1953L50.7504 42.7428L50.7582 42.7018L50.7256 42.6757L50.3657 42.3878L50.8242 42.3297L50.8656 42.3245L50.8803 42.2854L51.0421 41.856L51.2373 42.2713L51.255 42.3091L51.2967 42.3111L51.7583 42.3328L51.4222 42.6482L51.3918 42.6768L51.4028 42.717L51.5243 43.1614L51.1207 42.9391L51.0841 42.919L51.0492 42.9419L50.6644 43.1953Z" fill="white" stroke="#002664" stroke-width="0.138535"/>
<path d="M47.7571 43.2187L47.8432 42.7662L47.851 42.7252L47.8184 42.6992L47.4585 42.4112L47.917 42.3531L47.9583 42.3479L47.9731 42.3089L48.1349 41.8795L48.3301 42.2948L48.3478 42.3325L48.3895 42.3345L48.8511 42.3563L48.515 42.6717L48.4846 42.7002L48.4956 42.7404L48.617 43.1848L48.2134 42.9626L48.1768 42.9424L48.1419 42.9654L47.7571 43.2187Z" fill="white" stroke="#002664" stroke-width="0.138535"/>
<path d="M44.8548 43.4126L44.9408 42.9601L44.9486 42.9191L44.916 42.893L44.5562 42.6051L45.0146 42.547L45.056 42.5417L45.0707 42.5027L45.2325 42.0733L45.4277 42.4886L45.4455 42.5264L45.4871 42.5283L45.9487 42.5501L45.6127 42.8655L45.5823 42.8941L45.5933 42.9343L45.7147 43.3786L45.3111 43.1564L45.2745 43.1363L45.2396 43.1592L44.8548 43.4126Z" fill="white" stroke="#002664" stroke-width="0.138535"/>
<path d="M41.9764 43.8218L42.0624 43.3692L42.0702 43.3283L42.0376 43.3022L41.6777 43.0143L42.1362 42.9562L42.1776 42.9509L42.1923 42.9119L42.3541 42.4825L42.5493 42.8978L42.567 42.9356L42.6087 42.9375L43.0703 42.9593L42.7343 43.2747L42.7038 43.3032L42.7148 43.3435L42.8363 43.7878L42.4327 43.5656L42.3961 43.5454L42.3612 43.5684L41.9764 43.8218Z" fill="white" stroke="#002664" stroke-width="0.138535"/>
<path d="M39.1502 44.5078L39.2362 44.0553L39.244 44.0143L39.2115 43.9882L38.8516 43.7003L39.31 43.6422L39.3514 43.637L39.3661 43.5979L39.528 43.1685L39.7231 43.5838L39.7409 43.6216L39.7825 43.6236L40.2441 43.6453L39.9081 43.9607L39.8777 43.9893L39.8887 44.0295L40.0101 44.4739L39.6065 44.2516L39.5699 44.2315L39.535 44.2544L39.1502 44.5078Z" fill="white" stroke="#002664" stroke-width="0.138535"/>
<path d="M36.4349 45.5498L36.5209 45.0973L36.5287 45.0563L36.4961 45.0302L36.1362 44.7423L36.5947 44.6842L36.6361 44.679L36.6508 44.6399L36.8126 44.2105L37.0078 44.6258L37.0255 44.6636L37.0672 44.6655L37.5288 44.6873L37.1927 45.0027L37.1623 45.0313L37.1733 45.0715L37.2948 45.5158L36.8912 45.2936L36.8546 45.2735L36.8197 45.2964L36.4349 45.5498Z" fill="white" stroke="#002664" stroke-width="0.138535"/>
<path d="M33.929 47.0264L34.015 46.5738L34.0228 46.5329L33.9903 46.5068L33.6304 46.2189L34.0888 46.1608L34.1302 46.1555L34.1449 46.1165L34.3068 45.6871L34.5019 46.1024L34.5197 46.1401L34.5614 46.1421L35.023 46.1639L34.6869 46.4793L34.6565 46.5078L34.6675 46.5481L34.7889 46.9924L34.3853 46.7702L34.3487 46.75L34.3138 46.773L33.929 47.0264Z" fill="white" stroke="#002664" stroke-width="0.138535"/>
<path d="M59.3509 40.5786L59.4369 40.1261L59.4447 40.0851L59.4121 40.059L59.0523 39.7711L59.5107 39.713L59.5521 39.7078L59.5668 39.6687L59.7286 39.2393L59.9238 39.6546L59.9415 39.6924L59.9832 39.6944L60.4448 39.7161L60.1088 40.0315L60.0784 40.0601L60.0894 40.1003L60.2108 40.5447L59.8072 40.3224L59.7706 40.3023L59.7357 40.3252L59.3509 40.5786Z" fill="white" stroke="#002664" stroke-width="0.138535"/>
<path d="M56.47 40.2671L56.5561 39.8145L56.5638 39.7736L56.5313 39.7475L56.1714 39.4596L56.6298 39.4015L56.6712 39.3962L56.686 39.3572L56.8478 38.9278L57.0429 39.3431L57.0607 39.3809L57.1024 39.3828L57.564 39.4046L57.2279 39.72L57.1975 39.7486L57.2085 39.7888L57.3299 40.2331L56.9263 40.0109L56.8897 39.9907L56.8548 40.0137L56.47 40.2671Z" fill="white" stroke="#002664" stroke-width="0.138535"/>
<path d="M53.5701 40.0454L53.6562 39.5929L53.6639 39.5519L53.6314 39.5258L53.2715 39.2379L53.7299 39.1798L53.7713 39.1746L53.7861 39.1355L53.9479 38.7061L54.143 39.1214L54.1608 39.1592L54.2025 39.1611L54.6641 39.1829L54.328 39.4983L54.2976 39.5269L54.3086 39.5671L54.43 40.0115L54.0264 39.7892L53.9898 39.7691L53.9549 39.792L53.5701 40.0454Z" fill="white" stroke="#002664" stroke-width="0.138535"/>
<path d="M50.6644 39.9336L50.7504 39.481L50.7582 39.4401L50.7256 39.414L50.3657 39.1261L50.8242 39.068L50.8656 39.0627L50.8803 39.0237L51.0421 38.5943L51.2373 39.0096L51.255 39.0474L51.2967 39.0493L51.7583 39.0711L51.4222 39.3865L51.3918 39.4151L51.4028 39.4553L51.5243 39.8996L51.1207 39.6774L51.0841 39.6572L51.0492 39.6802L50.6644 39.9336Z" fill="white" stroke="#002664" stroke-width="0.138535"/>
<path d="M47.7571 39.958L47.8432 39.5055L47.851 39.4645L47.8184 39.4384L47.4585 39.1505L47.917 39.0924L47.9583 39.0872L47.9731 39.0481L48.1349 38.6187L48.3301 39.034L48.3478 39.0718L48.3895 39.0737L48.8511 39.0955L48.515 39.4109L48.4846 39.4395L48.4956 39.4797L48.617 39.9241L48.2134 39.7018L48.1768 39.6817L48.1419 39.7046L47.7571 39.958Z" fill="white" stroke="#002664" stroke-width="0.138535"/>
<path d="M44.8548 40.1509L44.9408 39.6983L44.9486 39.6574L44.916 39.6313L44.5562 39.3434L45.0146 39.2853L45.056 39.28L45.0707 39.241L45.2325 38.8116L45.4277 39.2269L45.4455 39.2647L45.4871 39.2666L45.9487 39.2884L45.6127 39.6038L45.5823 39.6324L45.5933 39.6726L45.7147 40.1169L45.3111 39.8947L45.2745 39.8745L45.2396 39.8975L44.8548 40.1509Z" fill="white" stroke="#002664" stroke-width="0.138535"/>
<path d="M41.9764 40.5605L42.0624 40.108L42.0702 40.067L42.0376 40.041L41.6777 39.753L42.1362 39.6949L42.1776 39.6897L42.1923 39.6506L42.3541 39.2213L42.5493 39.6366L42.567 39.6743L42.6087 39.6763L43.0703 39.6981L42.7343 40.0135L42.7038 40.042L42.7148 40.0822L42.8363 40.5266L42.4327 40.3044L42.3961 40.2842L42.3612 40.3072L41.9764 40.5605Z" fill="white" stroke="#002664" stroke-width="0.138535"/>
<path d="M39.1502 41.2471L39.2362 40.7945L39.244 40.7536L39.2115 40.7275L38.8516 40.4396L39.31 40.3815L39.3514 40.3762L39.3661 40.3372L39.528 39.9078L39.7231 40.3231L39.7409 40.3608L39.7825 40.3628L40.2441 40.3846L39.9081 40.7L39.8777 40.7285L39.8887 40.7688L40.0101 41.2131L39.6065 40.9909L39.5699 40.9707L39.535 40.9937L39.1502 41.2471Z" fill="white" stroke="#002664" stroke-width="0.138535"/>
<path d="M36.4349 42.2881L36.5209 41.8355L36.5287 41.7946L36.4961 41.7685L36.1362 41.4806L36.5947 41.4225L36.6361 41.4172L36.6508 41.3782L36.8126 40.9488L37.0078 41.3641L37.0255 41.4019L37.0672 41.4038L37.5288 41.4256L37.1927 41.741L37.1623 41.7696L37.1733 41.8098L37.2948 42.2541L36.8912 42.0319L36.8546 42.0117L36.8197 42.0347L36.4349 42.2881Z" fill="white" stroke="#002664" stroke-width="0.138535"/>
<path d="M33.929 43.7646L34.015 43.3121L34.0228 43.2711L33.9903 43.2451L33.6304 42.9571L34.0888 42.899L34.1302 42.8938L34.1449 42.8548L34.3068 42.4254L34.5019 42.8407L34.5197 42.8784L34.5614 42.8804L35.023 42.9022L34.6869 43.2176L34.6565 43.2461L34.6675 43.2863L34.7889 43.7307L34.3853 43.5085L34.3487 43.4883L34.3138 43.5113L33.929 43.7646Z" fill="white" stroke="#002664" stroke-width="0.138535"/>
<path d="M59.3519 50.8511L59.4379 50.3985L59.4457 50.3576L59.4131 50.3315L59.0532 50.0436L59.5117 49.9855L59.5531 49.9802L59.5678 49.9412L59.7296 49.5118L59.9248 49.9271L59.9425 49.9648L59.9842 49.9668L60.4458 49.9886L60.1097 50.304L60.0793 50.3325L60.0903 50.3728L60.2118 50.8171L59.8082 50.5949L59.7716 50.5747L59.7367 50.5977L59.3519 50.8511Z" fill="white" stroke="#002664" stroke-width="0.138535"/>
<path d="M56.4705 50.5395L56.5565 50.087L56.5643 50.046L56.5318 50.02L56.1719 49.732L56.6303 49.6739L56.6717 49.6687L56.6864 49.6297L56.8483 49.2003L57.0434 49.6156L57.0612 49.6533L57.1029 49.6553L57.5645 49.6771L57.2284 49.9925L57.198 50.021L57.209 50.0612L57.3304 50.5056L56.9268 50.2834L56.8902 50.2632L56.8553 50.2862L56.4705 50.5395Z" fill="white" stroke="#002664" stroke-width="0.138535"/>
<path d="M53.5711 50.3179L53.6571 49.8653L53.6649 49.8244L53.6324 49.7983L53.2725 49.5104L53.7309 49.4523L53.7723 49.447L53.787 49.408L53.9489 48.9786L54.144 49.3939L54.1618 49.4316L54.2034 49.4336L54.665 49.4554L54.329 49.7708L54.2986 49.7993L54.3096 49.8396L54.431 50.2839L54.0274 50.0617L53.9908 50.0415L53.9559 50.0645L53.5711 50.3179Z" fill="white" stroke="#002664" stroke-width="0.138535"/>
<path d="M50.6648 50.206L50.7509 49.7535L50.7587 49.7125L50.7261 49.6865L50.3662 49.3985L50.8247 49.3404L50.8661 49.3352L50.8808 49.2962L51.0426 48.8668L51.2378 49.2821L51.2555 49.3198L51.2972 49.3218L51.7588 49.3436L51.4227 49.659L51.3923 49.6875L51.4033 49.7278L51.5248 50.1721L51.1212 49.9499L51.0846 49.9297L51.0497 49.9527L50.6648 50.206Z" fill="white" stroke="#002664" stroke-width="0.138535"/>
<path d="M47.7581 50.2305L47.8441 49.7779L47.8519 49.737L47.8194 49.7109L47.4595 49.423L47.9179 49.3649L47.9593 49.3596L47.974 49.3206L48.1359 48.8912L48.331 49.3065L48.3488 49.3442L48.3905 49.3462L48.8521 49.368L48.516 49.6834L48.4856 49.7119L48.4966 49.7522L48.618 50.1965L48.2144 49.9743L48.1778 49.9541L48.1429 49.9771L47.7581 50.2305Z" fill="white" stroke="#002664" stroke-width="0.138535"/>
<path d="M44.8553 50.4233L44.9413 49.9708L44.9491 49.9298L44.9165 49.9038L44.5566 49.6158L45.0151 49.5577L45.0565 49.5525L45.0712 49.5134L45.233 49.0841L45.4282 49.4994L45.4459 49.5371L45.4876 49.5391L45.9492 49.5609L45.6132 49.8763L45.5828 49.9048L45.5937 49.945L45.7152 50.3894L45.3116 50.1671L45.275 50.147L45.2401 50.17L44.8553 50.4233Z" fill="white" stroke="#002664" stroke-width="0.138535"/>
<path d="M41.9769 50.833L42.0629 50.3805L42.0707 50.3395L42.0381 50.3134L41.6782 50.0255L42.1367 49.9674L42.1781 49.9622L42.1928 49.9231L42.3546 49.4937L42.5498 49.909L42.5675 49.9468L42.6092 49.9487L43.0708 49.9705L42.7347 50.2859L42.7043 50.3145L42.7153 50.3547L42.8368 50.7991L42.4332 50.5768L42.3966 50.5567L42.3617 50.5796L41.9769 50.833Z" fill="white" stroke="#002664" stroke-width="0.138535"/>
<path d="M39.1512 51.5195L39.2372 51.067L39.245 51.026L39.2124 51L38.8525 50.712L39.311 50.6539L39.3524 50.6487L39.3671 50.6096L39.5289 50.1803L39.7241 50.5955L39.7418 50.6333L39.7835 50.6353L40.2451 50.657L39.9091 50.9725L39.8787 51.001L39.8896 51.0412L40.0111 51.4856L39.6075 51.2633L39.5709 51.2432L39.536 51.2662L39.1512 51.5195Z" fill="white" stroke="#002664" stroke-width="0.138535"/>
<path d="M36.4354 52.5605L36.5214 52.108L36.5292 52.067L36.4966 52.041L36.1367 51.753L36.5952 51.6949L36.6366 51.6897L36.6513 51.6506L36.8131 51.2213L37.0083 51.6366L37.026 51.6743L37.0677 51.6763L37.5293 51.6981L37.1932 52.0135L37.1628 52.042L37.1738 52.0822L37.2953 52.5266L36.8917 52.3044L36.8551 52.2842L36.8202 52.3072L36.4354 52.5605Z" fill="white" stroke="#002664" stroke-width="0.138535"/>
<path d="M33.93 54.0371L34.016 53.5846L34.0238 53.5436L33.9912 53.5175L33.6314 53.2296L34.0898 53.1715L34.1312 53.1663L34.1459 53.1272L34.3077 52.6978L34.5029 53.1131L34.5207 53.1509L34.5623 53.1528L35.0239 53.1746L34.6879 53.49L34.6575 53.5186L34.6685 53.5588L34.7899 54.0032L34.3863 53.7809L34.3497 53.7608L34.3148 53.7837L33.93 54.0371Z" fill="white" stroke="#002664" stroke-width="0.138535"/>
<path d="M57.7948 36.8065L57.8928 36.3564L57.9017 36.3157L57.8698 36.2888L57.5177 35.9914L57.9775 35.9455L58.019 35.9413L58.0348 35.9027L58.2079 35.4777L58.392 35.8981L58.4087 35.9363L58.4504 35.9393L58.9112 35.9733L58.5669 36.2797L58.5358 36.3075L58.5457 36.348L58.6553 36.7954L58.2577 36.5625L58.2217 36.5414L58.1862 36.5635L57.7948 36.8065Z" fill="white" stroke="#002664" stroke-width="0.138535"/>
<path d="M54.9027 36.5082L55.0007 36.0581L55.0096 36.0173L54.9777 35.9904L54.6256 35.693L55.0854 35.6471L55.1269 35.643L55.1427 35.6043L55.3158 35.1794L55.4999 35.5997L55.5167 35.6379L55.5583 35.641L56.0191 35.675L55.6748 35.9814L55.6437 36.0091L55.6536 36.0496L55.7632 36.497L55.3657 36.2642L55.3296 36.2431L55.2941 36.2651L54.9027 36.5082Z" fill="white" stroke="#002664" stroke-width="0.138535"/>
<path d="M52.0009 36.3192L52.0988 35.8691L52.1077 35.8284L52.0759 35.8015L51.7237 35.5041L52.1836 35.4582L52.2251 35.454L52.2408 35.4154L52.414 34.9904L52.5981 35.4107L52.6148 35.449L52.6564 35.452L53.1173 35.486L52.773 35.7924L52.7418 35.8202L52.7517 35.8607L52.8614 36.3081L52.4638 36.0752L52.4277 36.0541L52.3922 36.0761L52.0009 36.3192Z" fill="white" stroke="#002664" stroke-width="0.138535"/>
<path d="M49.0922 36.266L49.1902 35.8159L49.199 35.7751L49.1672 35.7482L48.815 35.4509L49.2749 35.4049L49.3164 35.4008L49.3321 35.3621L49.5053 34.9372L49.6894 35.3575L49.7061 35.3957L49.7477 35.3988L50.2086 35.4328L49.8643 35.7392L49.8331 35.7669L49.8431 35.8074L49.9527 36.2549L49.5551 36.022L49.5191 36.0009L49.4836 36.0229L49.0922 36.266Z" fill="white" stroke="#002664" stroke-width="0.138535"/>
<path d="M46.1864 36.3822L46.2844 35.9321L46.2933 35.8914L46.2614 35.8645L45.9093 35.5671L46.3691 35.5211L46.4106 35.517L46.4264 35.4784L46.5995 35.0534L46.7836 35.4737L46.8004 35.512L46.842 35.515L47.3028 35.549L46.9585 35.8554L46.9274 35.8832L46.9373 35.9237L47.0469 36.3711L46.6493 36.1382L46.6133 36.1171L46.5778 36.1391L46.1864 36.3822Z" fill="white" stroke="#002664" stroke-width="0.138535"/>
<path d="M43.2982 36.7157L43.3962 36.2656L43.4051 36.2249L43.3732 36.1979L43.0211 35.9006L43.4809 35.8546L43.5224 35.8505L43.5382 35.8119L43.7113 35.3869L43.8954 35.8072L43.9122 35.8455L43.9538 35.8485L44.4146 35.8825L44.0703 36.1889L44.0392 36.2166L44.0491 36.2572L44.1587 36.7046L43.7612 36.4717L43.7251 36.4506L43.6896 36.4726L43.2982 36.7157Z" fill="white" stroke="#002664" stroke-width="0.138535"/>
<path d="M40.455 37.327L40.553 36.8769L40.5618 36.8362L40.53 36.8093L40.1778 36.5119L40.6377 36.466L40.6792 36.4618L40.6949 36.4232L40.8681 35.9982L41.0522 36.4186L41.0689 36.4568L41.1105 36.4599L41.5714 36.4939L41.2271 36.8003L41.1959 36.828L41.2058 36.8685L41.3155 37.3159L40.9179 37.083L40.8818 37.0619L40.8463 37.084L40.455 37.327Z" fill="white" stroke="#002664" stroke-width="0.138535"/>
<path d="M37.7133 38.2958L37.8113 37.8457L37.8201 37.8049L37.7883 37.778L37.4361 37.4806L37.896 37.4347L37.9375 37.4306L37.9532 37.3919L38.1264 36.967L38.3105 37.3873L38.3272 37.4255L38.3688 37.4286L38.8297 37.4626L38.4854 37.769L38.4542 37.7967L38.4641 37.8372L38.5738 38.2846L38.1762 38.0518L38.1401 38.0307L38.1047 38.0527L37.7133 38.2958Z" fill="white" stroke="#002664" stroke-width="0.138535"/>
<path d="M35.1688 39.7059L35.2668 39.2558L35.2757 39.2151L35.2438 39.1882L34.8917 38.8908L35.3515 38.8449L35.3931 38.8407L35.4088 38.8021L35.5819 38.3772L35.766 38.7975L35.7828 38.8357L35.8244 38.8388L36.2852 38.8728L35.9409 39.1792L35.9098 39.2069L35.9197 39.2474L36.0293 39.6948L35.6318 39.4619L35.5957 39.4408L35.5602 39.4629L35.1688 39.7059Z" fill="white" stroke="#002664" stroke-width="0.138535"/>
<path d="M57.7938 47.0775L57.8918 46.6274L57.9007 46.5867L57.8688 46.5598L57.5167 46.2624L57.9765 46.2165L58.0181 46.2123L58.0338 46.1737L58.2069 45.7487L58.391 46.169L58.4078 46.2073L58.4494 46.2103L58.9102 46.2443L58.5659 46.5507L58.5348 46.5785L58.5447 46.619L58.6543 47.0664L58.2568 46.8335L58.2207 46.8124L58.1852 46.8344L57.7938 47.0775Z" fill="white" stroke="#002664" stroke-width="0.138535"/>
<path d="M54.9022 46.7797L55.0002 46.3296L55.0091 46.2888L54.9772 46.2619L54.6251 45.9645L55.0849 45.9186L55.1264 45.9145L55.1422 45.8758L55.3153 45.4509L55.4994 45.8712L55.5162 45.9094L55.5578 45.9125L56.0186 45.9465L55.6743 46.2529L55.6432 46.2806L55.6531 46.3211L55.7627 46.7685L55.3652 46.5357L55.3291 46.5146L55.2936 46.5366L54.9022 46.7797Z" fill="white" stroke="#002664" stroke-width="0.138535"/>
<path d="M52.0004 46.5902L52.0984 46.1401L52.1072 46.0994L52.0754 46.0725L51.7232 45.7751L52.1831 45.7292L52.2246 45.725L52.2403 45.6864L52.4135 45.2614L52.5976 45.6817L52.6143 45.72L52.6559 45.723L53.1168 45.757L52.7725 46.0634L52.7413 46.0912L52.7513 46.1317L52.8609 46.5791L52.4633 46.3462L52.4273 46.3251L52.3918 46.3471L52.0004 46.5902Z" fill="white" stroke="#002664" stroke-width="0.138535"/>
<path d="M49.0922 46.537L49.1902 46.0869L49.199 46.0461L49.1672 46.0192L48.815 45.7219L49.2749 45.6759L49.3164 45.6718L49.3321 45.6331L49.5053 45.2082L49.6894 45.6285L49.7061 45.6667L49.7477 45.6698L50.2086 45.7038L49.8643 46.0102L49.8331 46.0379L49.8431 46.0784L49.9527 46.5258L49.5551 46.293L49.5191 46.2719L49.4836 46.2939L49.0922 46.537Z" fill="white" stroke="#002664" stroke-width="0.138535"/>
<path d="M46.1859 46.6537L46.2839 46.2036L46.2928 46.1628L46.2609 46.1359L45.9088 45.8386L46.3686 45.7926L46.4101 45.7885L46.4259 45.7498L46.599 45.3249L46.7831 45.7452L46.7999 45.7834L46.8415 45.7865L47.3023 45.8205L46.958 46.1269L46.9269 46.1546L46.9368 46.1951L47.0464 46.6425L46.6489 46.4097L46.6128 46.3886L46.5773 46.4106L46.1859 46.6537Z" fill="white" stroke="#002664" stroke-width="0.138535"/>
<path d="M43.2982 46.9867L43.3962 46.5366L43.4051 46.4959L43.3732 46.4689L43.0211 46.1716L43.4809 46.1256L43.5224 46.1215L43.5382 46.0829L43.7113 45.6579L43.8954 46.0782L43.9122 46.1164L43.9538 46.1195L44.4146 46.1535L44.0703 46.4599L44.0392 46.4876L44.0491 46.5281L44.1587 46.9756L43.7612 46.7427L43.7251 46.7216L43.6896 46.7436L43.2982 46.9867Z" fill="white" stroke="#002664" stroke-width="0.138535"/>
<path d="M40.454 47.598L40.552 47.1479L40.5608 47.1072L40.529 47.0803L40.1769 46.7829L40.6367 46.737L40.6782 46.7328L40.694 46.6942L40.8671 46.2692L41.0512 46.6896L41.0679 46.7278L41.1095 46.7308L41.5704 46.7648L41.2261 47.0712L41.1949 47.099L41.2049 47.1395L41.3145 47.5869L40.9169 47.354L40.8809 47.3329L40.8454 47.355L40.454 47.598Z" fill="white" stroke="#002664" stroke-width="0.138535"/>
<path d="M37.7123 48.5668L37.8103 48.1167L37.8191 48.0759L37.7873 48.049L37.4352 47.7516L37.895 47.7057L37.9365 47.7016L37.9523 47.6629L38.1254 47.238L38.3095 47.6583L38.3262 47.6965L38.3678 47.6996L38.8287 47.7336L38.4844 48.04L38.4532 48.0677L38.4632 48.1082L38.5728 48.5556L38.1752 48.3228L38.1392 48.3017L38.1037 48.3237L37.7123 48.5668Z" fill="white" stroke="#002664" stroke-width="0.138535"/>
<path d="M35.1688 49.9769L35.2668 49.5268L35.2757 49.4861L35.2438 49.4592L34.8917 49.1618L35.3515 49.1159L35.3931 49.1117L35.4088 49.0731L35.5819 48.6482L35.766 49.0685L35.7828 49.1067L35.8244 49.1098L36.2852 49.1438L35.9409 49.4502L35.9098 49.4779L35.9197 49.5184L36.0293 49.9658L35.6318 49.7329L35.5957 49.7118L35.5602 49.7339L35.1688 49.9769Z" fill="white" stroke="#002664" stroke-width="0.138535"/>
<path d="M30.8296 25.0488V97.0001" stroke="#002664" stroke-width="1.21951"/>
<circle cx="30.8293" cy="23.8293" r="1.21951" fill="#002664" stroke="#002664" stroke-width="1.21951"/>
</svg>
