<svg width="75" height="75" viewBox="0 0 75 75" fill="none" xmlns="http://www.w3.org/2000/svg">
<rect width="75" height="75" fill="#F8F8F8"/>
<path d="M43.4369 51.1008C43.0275 50.3929 42.5727 49.8451 42.1064 49.4243C43.2785 47.3789 44.7733 46.5761 45.8513 46.2774C46.0749 46.2155 46.2829 46.1734 46.4703 46.1462C47.0002 46.067 47.3461 46.1041 47.3477 46.1041H47.3708L47.4055 46.1074L47.4385 46.1041H47.4624C47.4657 46.1033 47.8347 46.0637 48.3968 46.1553C49.7307 46.3673 52.1029 47.2997 53.4838 51.1008H43.4369ZM33.665 52.8434C34.1305 51.6124 34.7273 50.7724 35.3455 50.1998L35.3587 50.1858C35.986 49.6091 36.634 49.3062 37.1911 49.152C37.3678 49.1033 37.5312 49.0703 37.6781 49.048C38.0883 48.987 38.3574 49.015 38.3607 49.0158H38.3855L38.4168 49.0183L38.449 49.0158H38.473C38.4755 49.0158 38.7627 48.9853 39.1993 49.0563C40.236 49.2205 42.0684 49.9391 43.1695 52.8434H33.665ZM23.3507 51.1008C24.4849 47.9977 26.3032 46.8871 27.6709 46.5084C27.8847 46.4499 28.0836 46.4086 28.2636 46.3822C28.7679 46.3071 29.0997 46.3417 29.1005 46.3426H29.1236L29.1591 46.3459L29.1921 46.3426H29.2152C29.2185 46.3417 29.5726 46.3063 30.1067 46.3912C31.136 46.5554 33.0204 47.2196 34.374 49.7683C34.0298 50.133 33.6988 50.5711 33.3934 51.1008H23.3507ZM25.0115 42.4663C25.0115 40.0901 26.8719 38.1569 29.1583 38.1569C31.4455 38.1569 33.3059 40.0901 33.3059 42.4663C33.3059 42.5365 33.2993 43.7287 33.2952 44.4234H32.4995C32.8437 43.8426 33.055 43.1734 33.055 42.4515C33.055 42.1775 32.8338 41.9564 32.5598 41.9564C31.2292 41.9564 29.6544 40.3813 29.6544 39.0513C29.6544 38.7774 29.4323 38.5563 29.1591 38.5563C28.8851 38.5563 28.6639 38.7774 28.6639 39.0513C28.6639 40.3813 27.089 41.9564 25.7576 41.9564C25.4844 41.9564 25.2624 42.1775 25.2624 42.4515C25.2624 43.1734 25.4737 43.8426 25.8179 44.4234H25.0115V42.4663ZM29.1591 45.3541L29.1096 45.3517C27.6816 45.3269 26.4997 44.2716 26.2867 42.8962C27.4307 42.6825 28.5425 41.8121 29.1591 40.7469C29.7757 41.8121 30.8875 42.6825 32.0307 42.8962C31.8186 44.2716 30.6366 45.3269 29.2078 45.3517L29.1591 45.3541ZM38.4168 43.3195C39.716 43.3195 40.7717 44.3756 40.7717 45.6742C40.7717 46.9605 39.735 48.0051 38.454 48.0249L38.4177 48.0266L38.3789 48.0249C37.0987 48.0035 36.062 46.9597 36.062 45.6742C36.062 44.3756 37.1185 43.3195 38.4168 43.3195ZM44.3589 42.072C44.3589 41.9886 44.3721 41.9078 44.3787 41.8261C44.997 41.539 45.8372 41.0686 46.3424 40.4539C47.6259 41.7691 49.3741 42.0934 50.4438 42.1619C50.3959 43.784 49.0786 45.0893 47.4501 45.1132L47.4063 45.1157L47.3576 45.1124C45.7002 45.086 44.3589 43.7353 44.3589 42.072ZM47.4055 38.2229C49.143 38.2229 50.5841 39.5134 50.8202 41.1858C49.885 41.1635 47.8207 40.9193 46.6618 39.2964C46.5677 39.1652 46.4167 39.0893 46.2582 39.0893L46.1633 39.0984C45.9726 39.1363 45.8215 39.2807 45.777 39.4696C45.6614 39.9556 44.8434 40.5051 44.0469 40.8888C44.4018 39.3624 45.7728 38.2229 47.4055 38.2229ZM49.6126 45.444C50.6914 44.7361 51.4079 43.529 51.4351 42.152C51.6687 42.1099 51.8445 41.9119 51.8445 41.6701C51.8445 39.2238 49.8536 37.232 47.4055 37.232C44.9582 37.232 42.9665 39.2238 42.9665 41.6701C42.9665 41.831 43.0449 41.982 43.1753 42.0744L43.3767 42.1536C43.4048 43.5315 44.1229 44.7403 45.205 45.4473C44.0106 45.8591 42.5117 46.7906 41.314 48.8219C40.9971 48.6239 40.6867 48.4729 40.392 48.3599C41.2183 47.7502 41.7622 46.7782 41.7622 45.6742C41.7622 43.8302 40.2616 42.3294 38.4168 42.3294C36.5721 42.3294 35.0715 43.8302 35.0715 45.6742C35.0715 46.7774 35.6154 47.7502 36.4416 48.3591C36.0215 48.52 35.5766 48.7518 35.1334 49.0843C33.9786 47.0307 32.4946 46.1041 31.3225 45.6875C31.443 45.6066 31.5487 45.5068 31.6593 45.4135H33.7872C34.0595 45.4135 34.2807 45.1941 34.2824 44.9218C34.2824 44.9218 34.2973 42.5662 34.2973 42.4663C34.2973 39.5439 31.9919 37.1668 29.1583 37.1668C26.3255 37.1668 24.021 39.5439 24.021 42.4663V44.9185C24.021 45.1924 24.2422 45.4135 24.5162 45.4135H26.659C26.7688 45.5068 26.8736 45.6058 26.9933 45.6866C25.3548 46.265 23.3301 47.7452 22.1894 51.4498C22.1424 51.6008 22.1704 51.7634 22.2637 51.8904C22.357 52.0167 22.5047 52.0909 22.6624 52.0909H32.9015C32.7571 52.4308 32.6217 52.7947 32.4995 53.1924C32.4533 53.3426 32.4805 53.5059 32.5738 53.6322C32.6671 53.7592 32.8157 53.8335 32.9725 53.8335H43.8612C44.0189 53.8335 44.1666 53.7592 44.2599 53.6322C44.3532 53.5059 44.3812 53.3426 44.335 53.1924C44.212 52.7931 44.0733 52.4317 43.9281 52.0909H54.1721C54.329 52.0909 54.4767 52.0167 54.5708 51.8904C54.6633 51.7634 54.6913 51.6008 54.6451 51.4498C53.4351 47.5233 51.2626 46.0142 49.6126 45.444Z" fill="#181818"/>
<path d="M38.0005 14.1589L61.2405 35.4683H57.6049L38.3351 18.0306C38.1459 17.8598 37.8552 17.8598 37.6652 18.0306L18.3962 35.4683H14.759L38.0005 14.1589ZM19.0843 20.3525H23.807V25.8361L19.0843 30.1661V20.3525ZM19.0843 62.0196V36.1742L38.0005 19.0567L56.9168 36.1742V62.0196H19.0843ZM13.4959 36.4487H18.093V62.5098C18.093 62.781 18.3144 63 18.5887 63H57.4125C57.6859 63 57.9081 62.781 57.9081 62.5098V36.4487H62.5044C62.7076 36.4487 62.891 36.3254 62.9653 36.1375C63.0405 35.9496 62.9909 35.7363 62.8414 35.5991L38.3368 13.1311C38.1476 12.9563 37.8535 12.9563 37.6635 13.1311L24.7982 24.9268V19.8623C24.7982 19.5911 24.576 19.3721 24.3026 19.3721H18.5887C18.3144 19.3721 18.093 19.5911 18.093 19.8623V31.0754L13.1589 35.5991C13.0094 35.7363 12.9598 35.9496 13.0341 36.1375C13.1085 36.3254 13.2919 36.4487 13.4959 36.4487Z" fill="#181818"/>
</svg>
