<svg width="75" height="75" viewBox="0 0 75 75" fill="none" xmlns="http://www.w3.org/2000/svg">
<rect width="75" height="75" fill="#F8F8F8"/>
<path d="M35.5002 48.8393C34.2419 48.8393 33.2183 47.8626 33.2183 46.6625C33.2183 45.3807 33.8672 43.688 35.5002 40.7743C37.1327 43.6868 37.7821 45.3799 37.7821 46.6625C37.7821 47.8626 36.7581 48.8393 35.5002 48.8393ZM34.9669 39.2782C32.8321 42.9639 32 45.0332 32 46.6625C32 48.5023 33.5703 50 35.5002 50C37.4297 50 39 48.5023 39 46.6625C39 45.0325 38.1682 42.9632 36.0326 39.2782C35.8189 38.9073 35.1818 38.9073 34.9669 39.2782Z" fill="#181818"/>
<path d="M35.5002 59.8395C34.2419 59.8395 33.2183 58.8627 33.2183 57.6633C33.2183 56.3817 33.8672 54.6884 35.5002 51.7745C37.1327 54.6877 37.7821 56.3807 37.7821 57.6633C37.7821 58.8627 36.7581 59.8395 35.5002 59.8395ZM34.9669 50.2782C32.8321 53.9643 32 56.035 32 57.6633C32 59.5045 33.5703 61 35.5002 61C37.4297 61 39 59.5045 39 57.6633C39 56.0343 38.1682 53.9636 36.0326 50.2782C35.8189 49.9073 35.1818 49.9073 34.9669 50.2782Z" fill="#181818"/>
<path d="M51.4996 48.8393C50.2416 48.8393 49.2179 47.8626 49.2179 46.6625C49.2179 45.3799 49.8674 43.6868 51.4996 40.7743C53.1327 43.6868 53.7821 45.3799 53.7821 46.6625C53.7821 47.8626 52.758 48.8393 51.4996 48.8393ZM50.9668 39.2782C48.8323 42.9632 48 45.0325 48 46.6625C48 48.5023 49.57 50 51.4996 50C53.4296 50 55 48.5023 55 46.6625C55 45.0325 54.1678 42.9632 52.0325 39.2782C51.8183 38.9073 51.1817 38.9073 50.9668 39.2782Z" fill="#181818"/>
<path d="M51.4996 59.8395C50.2416 59.8395 49.2179 58.8627 49.2179 57.6633C49.2179 56.3807 49.8674 54.6877 51.4996 51.7745C53.1327 54.6877 53.7821 56.3807 53.7821 57.6633C53.7821 58.8627 52.758 59.8395 51.4996 59.8395ZM50.9668 50.2782C48.8323 53.9636 48 56.0343 48 57.6633C48 59.5045 49.57 61 51.4996 61C53.4296 61 55 59.5045 55 57.6633C55 56.0343 54.1678 53.9636 52.0325 50.2782C51.8183 49.9073 51.1817 49.9073 50.9668 50.2782Z" fill="#181818"/>
<path d="M43.5004 52.8417C42.242 52.8417 41.2179 51.8668 41.2179 50.6696C41.2179 49.3894 41.8674 47.6993 43.5004 44.792C45.1326 47.6993 45.7821 49.3894 45.7821 50.6696C45.7821 51.8668 44.7588 52.8417 43.5004 52.8417ZM43.5004 43C43.2788 43 43.0746 43.114 42.9675 43.2986C40.8322 46.9769 40 49.0425 40 50.6696C40 52.5062 41.5704 54 43.5004 54C45.43 54 47 52.5062 47 50.6696C47 49.0425 46.1678 46.9769 44.0336 43.2986C43.9258 43.114 43.722 43 43.5004 43Z" fill="#181818"/>
<path d="M43.5004 64.8407C42.242 64.8407 41.2179 63.867 41.2179 62.6677C41.2179 61.3876 41.8674 59.6981 43.5004 56.7911C45.1326 59.6981 45.7821 61.3876 45.7821 62.6677C45.7821 63.867 44.7588 64.8407 43.5004 64.8407ZM43.5004 55C43.2788 55 43.0746 55.1139 42.9675 55.2984C40.8322 58.9753 40 61.0419 40 62.6677C40 64.5055 41.5704 66 43.5004 66C45.43 66 47 64.5055 47 62.6677C47 61.0419 46.1678 58.9753 44.0329 55.2984C43.9258 55.1139 43.722 55 43.5004 55Z" fill="#181818"/>
<path d="M56.8735 34.8055C56.8735 35.5096 56.2957 36.0833 55.5861 36.0833H30.9161C30.2061 36.0833 29.6285 35.5096 29.6285 34.8055V34.1889C29.6285 33.4849 30.2061 32.9119 30.9161 32.9119H55.5861C56.2957 32.9119 56.8735 33.4849 56.8735 34.1889V34.8055ZM43.2512 21.0267C49.3562 21.0267 54.3422 25.8102 54.6385 31.7953H31.8636C32.1599 25.8102 37.146 21.0267 43.2512 21.0267ZM31.9512 13.1399C26.5589 13.1399 22.172 17.5835 22.172 23.047V64.8824H19.1265V23.047C19.1265 15.9173 24.8797 10.1176 31.9512 10.1176C38.8644 10.1176 44.5025 14.5221 44.7518 20.008C44.259 19.9491 43.7598 19.9102 43.2512 19.9102C42.7265 19.9102 42.2127 19.9531 41.7049 20.0153C41.4438 16.1921 37.1757 13.1399 31.9512 13.1399ZM55.7661 31.8131C55.5168 26.0925 51.3697 21.3629 45.8908 20.1932C45.7643 14.0043 39.5652 9 31.9512 9C24.2585 9 18 15.3017 18 23.047V65.4412C18 65.7494 18.252 66 18.5633 66H22.7352C23.0466 66 23.2988 65.7494 23.2988 65.4412V23.047C23.2988 18.2001 27.1804 14.2567 31.9512 14.2567C36.6337 14.2567 40.4503 16.9064 40.5905 20.1986C35.1218 21.376 30.985 26.1002 30.736 31.8131C29.4903 31.9063 28.5017 32.9298 28.5017 34.1889V34.8055C28.5017 36.1262 29.5849 37.2002 30.9161 37.2002H55.5861C56.9176 37.2002 58 36.1262 58 34.8055V34.1889C58 32.9298 57.0124 31.9063 55.7661 31.8131Z" fill="#181818"/>
</svg>
