<svg width="75" height="75" viewBox="0 0 75 75" fill="none" xmlns="http://www.w3.org/2000/svg">
<rect width="75" height="75" fill="#F8F8F8"/>
<path d="M32.725 16.366L32.7262 16.3651L40.5003 9.35171L54.9141 22.3541H52.8602L40.8982 11.6415C40.6736 11.4395 40.3275 11.4395 40.1025 11.6415L28.1404 22.3541H26.0859L32.725 16.366ZM29.5607 12.6725H31.7225V15.7114L29.5607 17.661V12.6725ZM39.6622 38.8565V26.3534C39.6622 26.038 39.3994 25.7817 39.0747 25.7817H32.3054C31.9806 25.7817 31.7175 26.038 31.7175 26.3534V38.8565H28.9571V23.1774L40.5003 12.8393L52.0439 23.1774V38.8565H39.6622ZM38.4871 38.8565H32.893V26.9252H38.4871V38.8565ZM24.5878 23.4985H27.782V39.4283C27.782 39.7446 28.0448 40 28.3695 40H52.6315C52.9563 40 53.219 39.7446 53.219 39.4283V23.4985H56.4125C56.6538 23.4985 56.8707 23.3537 56.9594 23.1355C57.0478 22.9163 56.9889 22.6666 56.8114 22.5065L40.8997 8.15294C40.6751 7.94902 40.3259 7.94902 40.1013 8.15294L32.8976 14.6508V12.1008C32.8976 11.7844 32.6348 11.5281 32.31 11.5281H28.9728C28.6484 11.5281 28.3852 11.7844 28.3852 12.1008V18.7216L24.1885 22.5065C24.011 22.6666 23.9521 22.9163 24.0408 23.1355C24.1292 23.3537 24.3461 23.4985 24.5878 23.4985Z" fill="#181818"/>
<path d="M33.4998 35C33.7761 35 34 34.7103 34 34.3538V31.6462C34 31.2897 33.7761 31 33.4998 31C33.2238 31 33 31.2897 33 31.6462V34.3538C33 34.7103 33.2238 35 33.4998 35Z" fill="#181818"/>
<path d="M45.5958 32.8091V30.595H47.8088V32.8091H45.5958ZM42.1912 30.595H44.4046V32.8091H42.1912V30.595ZM44.4046 27.1909V29.404H42.1912V27.1909H44.4046ZM47.8088 29.404H45.5958V27.1909H47.8088V29.404ZM48.4046 26H41.5958C41.2667 26 41 26.267 41 26.5955V33.4045C41 33.733 41.2667 34 41.5958 34H48.4046C48.7337 34 49 33.733 49 33.4045V26.5955C49 26.267 48.7337 26 48.4046 26Z" fill="#181818"/>
<path d="M17.1363 53.0712L29.7296 61.4518L26.9783 65.6101L14.385 57.2295L17.1363 53.0712ZM23.2173 51.0134C24.3305 49.342 26.3489 46.9464 27.3518 46.8552L28.9238 46.7067C33.4664 46.2699 41.9223 45.4584 43.4644 47.06C43.6043 47.2056 43.6535 47.3512 43.6277 47.5482C43.3042 50.0302 38.1541 49.6497 38.1017 49.6448C37.7795 49.6225 37.5003 49.8545 37.4723 50.1748C37.4446 50.4942 37.6805 50.7766 37.9996 50.8057C38.2369 50.8261 43.4062 51.2425 44.5686 48.4519C51.0756 44.5917 58.7368 41.1711 59.897 42.3397C61.8206 44.2694 60.405 47.1299 59.0599 48.4791C57.1111 50.433 49.8282 55.7628 47.6317 56.2433C44.6426 56.8975 33.6807 56.3161 31.2393 55.16C30.9981 55.0455 30.7098 55.1115 30.5408 55.3192L27.7648 58.7466L20.8573 54.1496L23.2173 51.0134ZM13.2597 57.8779L26.8203 66.9029C26.9193 66.9689 27.0304 67 27.1408 67C27.3286 67 27.5132 66.9087 27.625 66.7398L31.0178 61.61C31.1028 61.4819 31.1335 61.3237 31.1028 61.1722C31.0726 61.0208 30.9834 60.8878 30.8549 60.8024L28.737 59.393L31.1709 56.3889C34.6121 57.6216 45.0199 58.005 47.8793 57.3819C50.4704 56.815 57.9859 51.2027 59.8815 49.3022C61.5429 47.6346 63.2392 44.0471 60.7185 41.5166C58.5471 39.3385 48.8602 44.6023 44.7284 47.0076C44.6532 46.7309 44.5145 46.4737 44.2994 46.2505C42.5157 44.3985 35.9566 44.8605 28.8134 45.5468L27.2471 45.6952C25.337 45.869 22.7509 49.6176 22.2713 50.3398L19.8881 53.5041L17.2947 51.7783C17.0268 51.5997 16.6677 51.6735 16.49 51.9414L13.0968 57.0712C13.0117 57.1994 12.9808 57.3566 13.0117 57.508C13.042 57.6595 13.1312 57.7924 13.2597 57.8779Z" fill="#181818"/>
</svg>
