<svg width="52" height="37" viewBox="0 0 52 37" fill="none" xmlns="http://www.w3.org/2000/svg">
<path d="M16.8333 6.33398C16.5556 4.66732 15.1667 1.33398 11.8333 1.33398C8.5 1.33398 7.66667 5.22287 7.66667 7.16732V13.834M7.66667 13.834H3.5M7.66667 13.834H48.5M51 13.834H48.5M1 13.834H3.5M3.5 13.834V16.334M48.5 13.834V16.334M48.5 16.334V23.834C47.8333 29.1673 43.2222 30.5007 41 30.5007H11C8.6235 30.2366 6.95297 29.3537 5.80199 28.2456C4.04707 26.556 3.5 24.3427 3.5 23.0007V16.334M48.5 16.334H3.5" stroke="#181818" stroke-width="1.66667" stroke-linecap="round"/>
<rect x="7.10013" y="29.1783" width="3.33333" height="5" rx="1.43302" transform="rotate(42.4099 7.10013 29.1783)" stroke="#181818" stroke-width="1.66667"/>
<rect x="-0.0532571" y="1.17731" width="3.33333" height="5" rx="1.66667" transform="matrix(-0.738339 0.67443 0.67443 0.738339 43.4611 28.345)" stroke="#181818" stroke-width="1.66667"/>
</svg>
