<svg width="32" height="30" viewBox="0 0 32 30" fill="none" xmlns="http://www.w3.org/2000/svg">
<path d="M10.5 8C10.3333 7 9.5 5 7.5 5C5.5 5 5 7.33333 5 8.5V12.5M5 12.5H2.5M5 12.5H29.5M31 12.5H29.5M1 12.5H2.5M2.5 12.5V14M29.5 12.5V14M29.5 14V18.5C29.1 21.7 26.3333 22.5 25 22.5H7C5.5741 22.3416 4.57178 21.8118 3.88119 21.147C2.82824 20.1332 2.5 18.8052 2.5 18V14M29.5 14H2.5" stroke="#B1B1B1" stroke-linecap="round"/>
<rect x="4.66086" y="21.7064" width="2" height="3" rx="0.859814" transform="rotate(42.4099 4.66086 21.7064)" stroke="#B1B1B1"/>
<rect x="-0.0319543" y="0.706384" width="2" height="3" rx="1" transform="matrix(-0.738339 0.67443 0.67443 0.738339 26.4759 21.2064)" stroke="#B1B1B1"/>
</svg>
