<svg width="51" height="50" viewBox="0 0 51 50" fill="none" xmlns="http://www.w3.org/2000/svg">
<path d="M1 11.667V20.0003M1 40.0003V31.667M1 20.0003C1.27778 19.167 2.5 17.3337 5.16667 16.667C8.5 15.8337 16 15.8337 16.8333 20.8337M1 20.0003V20.8337M16.8333 20.8337H1M16.8333 20.8337H43.5C45.7222 20.8337 50.1667 22.167 50.1667 27.5003C50.1667 28.0583 50.1667 28.6151 50.1667 29.167M1 20.8337V29.167M50.1667 40.0003C50.1667 38.5723 50.1667 35.3764 50.1667 31.667M50.1667 29.167H1M50.1667 29.167C50.1667 30.0162 50.1667 30.8539 50.1667 31.667M1 29.167V31.667M50.1667 31.667H1" stroke="#181818" stroke-width="1.66667" stroke-linecap="round"/>
</svg>
