<svg width="52" height="62" viewBox="0 0 52 62" fill="none" xmlns="http://www.w3.org/2000/svg">
<path d="M2 45L6 39" stroke="#002664"/>
<path d="M25.7949 7.12698C11.9286 5.67267 4.53159 8.67556 2.56641 10.3588V12.899C4.53159 11.2158 11.9286 8.21291 25.7949 9.66723C39.6613 11.1215 48.709 6.18854 51.4996 3.54025V1C48.709 3.64829 39.6613 8.5813 25.7949 7.12698Z" fill="#002664"/>
<path d="M2.56641 15.4393V17.9795C4.53159 16.2963 11.9286 13.2934 25.7949 14.7477C39.6613 16.202 48.709 11.269 51.4996 8.62074V6.08049C48.709 8.72879 39.6613 13.6618 25.7949 12.2075C11.9286 10.7532 4.53159 13.7561 2.56641 15.4393Z" fill="#002664"/>
<path d="M2.56641 20.5198V23.06C4.53159 21.3768 11.9286 18.3739 25.7949 19.8282C39.6613 21.2825 48.709 16.3495 51.4996 13.7012V11.161C48.709 13.8093 39.6613 18.7423 25.7949 17.288C11.9286 15.8336 4.53159 18.8365 2.56641 20.5198Z" fill="#002664"/>
<path d="M2.56641 25.6003V28.1405C4.53159 26.4573 11.9286 23.4544 25.7949 24.9087C39.6613 26.363 48.709 21.43 51.4996 18.7817V16.2415C48.709 18.8898 39.6613 23.8228 25.7949 22.3685C11.9286 20.9141 4.53159 23.917 2.56641 25.6003Z" fill="#002664"/>
<path d="M2.56641 30.6808V33.0873C4.53159 31.4281 11.9286 28.4681 25.7949 29.9017C39.6613 31.3352 48.709 26.4727 51.4996 23.8622V21.322C48.709 23.9703 39.6613 28.9033 25.7949 27.4489C11.9286 25.9946 4.53159 28.9975 2.56641 30.6808Z" fill="#002664"/>
<path d="M2.56641 35.6276V38.3015C4.53159 36.6183 11.9286 33.6154 25.7949 35.0697C39.6613 36.524 48.709 31.591 51.4996 28.9427V26.4025C48.709 29.0129 39.6613 33.8755 25.7949 32.4419C11.9286 31.0084 4.53159 33.9684 2.56641 35.6276Z" fill="#002664"/>
<path d="M2.56641 10.3588C4.53159 8.67556 11.9286 5.67267 25.7949 7.12698C39.6613 8.5813 48.709 3.64829 51.4996 1M2.56641 10.3588V40.8417C4.53159 39.1585 11.9286 36.1556 25.7949 37.6099C39.6613 39.0642 48.709 34.1312 51.4996 31.4829M2.56641 10.3588V12.899C4.53159 11.2158 11.9286 8.21291 25.7949 9.66723C39.6613 11.1215 48.709 6.18854 51.4996 3.54025V1M51.4996 1V31.5498M2.56641 15.4393C4.53159 13.7561 11.9286 10.7532 25.7949 12.2075C39.6613 13.6618 48.709 8.72878 51.4996 6.08049V8.62074C48.709 11.269 39.6613 16.202 25.7949 14.7477C11.9286 13.2934 4.53159 16.2963 2.56641 17.9795V15.4393ZM2.56641 20.5198C4.53159 18.8365 11.9286 15.8336 25.7949 17.288C39.6613 18.7423 48.709 13.8093 51.4996 11.161V13.7012C48.709 16.3495 39.6613 21.2825 25.7949 19.8282C11.9286 18.3739 4.53159 21.3768 2.56641 23.06V20.5198ZM2.56641 25.6003C4.53159 23.917 11.9286 20.9141 25.7949 22.3685C39.6613 23.8228 48.709 18.8898 51.4996 16.2415V18.7817C48.709 21.43 39.6613 26.363 25.7949 24.9087C11.9286 23.4544 4.53159 26.4573 2.56641 28.1405V25.6003ZM2.56641 30.6808C4.53159 28.9975 11.9286 25.9946 25.7949 27.4489C39.6613 28.9033 48.709 23.9703 51.4996 21.322V23.8622C48.709 26.4727 39.6613 31.3352 25.7949 29.9017C11.9286 28.4681 4.53159 31.4281 2.56641 33.0873V30.6808ZM2.56641 35.6276C4.53159 33.9684 11.9286 31.0084 25.7949 32.4419C39.6613 33.8755 48.709 29.0129 51.4996 26.4025V28.9427C48.709 31.591 39.6613 36.524 25.7949 35.0697C11.9286 33.6154 4.53159 36.6183 2.56641 38.3015V35.6276Z" stroke="#002664" stroke-width="0.133697"/>
<path d="M2.56685 28.1663V10.3259C5.15997 8.44531 8.59986 7.35904 12.7241 6.90516C16.8475 6.45137 21.6506 6.63018 26.9666 7.27603V25.0239C16.3891 24.3096 10.6812 24.1508 2.56685 28.1663Z" fill="#002664" stroke="#002664" stroke-width="0.133697"/>
<path d="M24.8879 9.48551L24.9584 9.11443L24.9648 9.08084L24.9381 9.05947L24.643 8.82336L25.0189 8.77572L25.0529 8.77142L25.0649 8.7394L25.1976 8.38731L25.3577 8.72785L25.3722 8.75881L25.4064 8.76042L25.7849 8.77828L25.5093 9.03692L25.4844 9.06032L25.4934 9.09331L25.593 9.45767L25.262 9.27544L25.232 9.25891L25.2034 9.27775L24.8879 9.48551Z" fill="white" stroke="#002664" stroke-width="0.113599"/>
<path d="M22.5265 9.23063L22.5971 8.85955L22.6035 8.82595L22.5768 8.80459L22.2817 8.56847L22.6576 8.52084L22.6915 8.51654L22.7036 8.48452L22.8363 8.13243L22.9963 8.47296L23.0109 8.50393L23.0451 8.50554L23.4236 8.52339L23.148 8.78204L23.1231 8.80544L23.1321 8.83843L23.2317 9.20279L22.9007 9.02056L22.8707 9.00403L22.8421 9.02287L22.5265 9.23063Z" fill="white" stroke="#002664" stroke-width="0.113599"/>
<path d="M20.1476 9.04801L20.2182 8.67693L20.2246 8.64334L20.1979 8.62197L19.9028 8.38586L20.2787 8.33822L20.3126 8.33392L20.3247 8.3019L20.4574 7.94981L20.6174 8.29035L20.632 8.32131L20.6661 8.32292L21.0447 8.34078L20.7691 8.59942L20.7442 8.62282L20.7532 8.65581L20.8527 9.02017L20.5218 8.83794L20.4918 8.82141L20.4632 8.84025L20.1476 9.04801Z" fill="white" stroke="#002664" stroke-width="0.113599"/>
<path d="M17.7648 8.95621L17.8354 8.58513L17.8417 8.55154L17.815 8.53018L17.5199 8.29406L17.8959 8.24642L17.9298 8.24212L17.9419 8.21011L18.0746 7.85802L18.2346 8.19855L18.2492 8.22951L18.2833 8.23113L18.6618 8.24898L18.3863 8.50763L18.3613 8.53103L18.3704 8.56401L18.4699 8.92838L18.139 8.74614L18.109 8.72962L18.0804 8.74846L17.7648 8.95621Z" fill="white" stroke="#002664" stroke-width="0.113599"/>
<path d="M15.382 8.97574L15.4525 8.60466L15.4589 8.57107L15.4322 8.54971L15.1371 8.31359L15.5131 8.26595L15.547 8.26165L15.5591 8.22964L15.6918 7.87755L15.8518 8.21808L15.8663 8.24905L15.9005 8.25066L16.279 8.26851L16.0035 8.52716L15.9785 8.55056L15.9875 8.58354L16.0871 8.94791L15.7562 8.76567L15.7262 8.74915L15.6975 8.76799L15.382 8.97574Z" fill="white" stroke="#002664" stroke-width="0.113599"/>
<path d="M13.0011 9.13492L13.0717 8.76384L13.0781 8.73025L13.0514 8.70889L12.7563 8.47277L13.1322 8.42513L13.1661 8.42083L13.1782 8.38882L13.3109 8.03673L13.4709 8.37726L13.4855 8.40823L13.5197 8.40984L13.8982 8.42769L13.6226 8.68634L13.5977 8.70974L13.6067 8.74272L13.7063 9.10709L13.3753 8.92485L13.3453 8.90833L13.3167 8.92717L13.0011 9.13492Z" fill="white" stroke="#002664" stroke-width="0.113599"/>
<path d="M10.6398 9.47086L10.7104 9.09978L10.7167 9.06619L10.69 9.04482L10.3949 8.80871L10.7709 8.76107L10.8048 8.75677L10.8169 8.72475L10.9496 8.37266L11.1096 8.7132L11.1242 8.74416L11.1583 8.74578L11.5368 8.76363L11.2613 9.02227L11.2363 9.04568L11.2454 9.07866L11.3449 9.44302L11.014 9.26079L10.984 9.24426L10.9554 9.26311L10.6398 9.47086Z" fill="white" stroke="#002664" stroke-width="0.113599"/>
<path d="M8.32341 10.0334L8.39395 9.66228L8.40034 9.62869L8.37364 9.60732L8.07853 9.37121L8.45446 9.32357L8.4884 9.31927L8.50047 9.28725L8.63316 8.93516L8.7932 9.2757L8.80775 9.30666L8.84193 9.30828L9.22044 9.32613L8.94487 9.58477L8.91994 9.60818L8.92895 9.64116L9.02853 10.0055L8.69759 9.82329L8.66757 9.80676L8.63895 9.82561L8.32341 10.0334Z" fill="white" stroke="#002664" stroke-width="0.113599"/>
<path d="M6.09685 10.8869L6.16739 10.5158L6.17378 10.4822L6.14707 10.4608L5.85197 10.2247L6.2279 10.1771L6.26184 10.1728L6.27391 10.1408L6.4066 9.78868L6.56664 10.1292L6.58119 10.1602L6.61537 10.1618L6.99388 10.1796L6.71831 10.4383L6.69337 10.4617L6.70239 10.4947L6.80197 10.859L6.47102 10.6768L6.44101 10.6603L6.41239 10.6791L6.09685 10.8869Z" fill="white" stroke="#002664" stroke-width="0.113599"/>
<path d="M4.04216 12.0988L4.1127 11.7277L4.11909 11.6941L4.09239 11.6728L3.79728 11.4366L4.17321 11.389L4.20715 11.3847L4.21922 11.3527L4.35191 11.0006L4.51195 11.3411L4.5265 11.3721L4.56068 11.3737L4.93919 11.3916L4.66362 11.6502L4.63869 11.6736L4.6477 11.7066L4.74728 12.071L4.41634 11.8887L4.38632 11.8722L4.3577 11.891L4.04216 12.0988Z" fill="white" stroke="#002664" stroke-width="0.113599"/>
<path d="M24.8879 17.9084L24.9584 17.5373L24.9648 17.5037L24.9381 17.4823L24.643 17.2462L25.0189 17.1986L25.0529 17.1943L25.0649 17.1623L25.1976 16.8102L25.3577 17.1507L25.3722 17.1817L25.4064 17.1833L25.7849 17.2011L25.5093 17.4598L25.4844 17.4832L25.4934 17.5162L25.593 17.8805L25.262 17.6983L25.232 17.6818L25.2034 17.7006L24.8879 17.9084Z" fill="white" stroke="#002664" stroke-width="0.113599"/>
<path d="M22.5265 17.6535L22.5971 17.2824L22.6035 17.2488L22.5768 17.2274L22.2817 16.9913L22.6576 16.9437L22.6915 16.9394L22.7036 16.9074L22.8363 16.5553L22.9963 16.8958L23.0109 16.9268L23.0451 16.9284L23.4236 16.9462L23.148 17.2049L23.1231 17.2283L23.1321 17.2613L23.2317 17.6256L22.9007 17.4434L22.8707 17.4269L22.8421 17.4457L22.5265 17.6535Z" fill="white" stroke="#002664" stroke-width="0.113599"/>
<path d="M20.1476 17.4718L20.2182 17.1008L20.2246 17.0672L20.1979 17.0458L19.9028 16.8097L20.2787 16.762L20.3126 16.7577L20.3247 16.7257L20.4574 16.3736L20.6174 16.7142L20.632 16.7451L20.6661 16.7468L21.0447 16.7646L20.7691 17.0233L20.7442 17.0467L20.7532 17.0796L20.8527 17.444L20.5218 17.2618L20.4918 17.2452L20.4632 17.2641L20.1476 17.4718Z" fill="white" stroke="#002664" stroke-width="0.113599"/>
<path d="M17.7648 17.3791L17.8354 17.008L17.8417 16.9744L17.815 16.953L17.5199 16.7169L17.8959 16.6693L17.9298 16.665L17.9419 16.633L18.0746 16.2809L18.2346 16.6214L18.2492 16.6524L18.2833 16.654L18.6618 16.6718L18.3863 16.9305L18.3613 16.9539L18.3704 16.9869L18.4699 17.3512L18.139 17.169L18.109 17.1525L18.0804 17.1713L17.7648 17.3791Z" fill="white" stroke="#002664" stroke-width="0.113599"/>
<path d="M15.382 17.3986L15.4525 17.0275L15.4589 16.9939L15.4322 16.9726L15.1371 16.7364L15.5131 16.6888L15.547 16.6845L15.5591 16.6525L15.6918 16.3004L15.8518 16.6409L15.8663 16.6719L15.9005 16.6735L16.279 16.6914L16.0035 16.95L15.9785 16.9734L15.9875 17.0064L16.0871 17.3708L15.7562 17.1885L15.7262 17.172L15.6975 17.1908L15.382 17.3986Z" fill="white" stroke="#002664" stroke-width="0.113599"/>
<path d="M13.0011 17.5578L13.0717 17.1867L13.0781 17.1531L13.0514 17.1317L12.7563 16.8956L13.1322 16.848L13.1661 16.8437L13.1782 16.8117L13.3109 16.4596L13.4709 16.8001L13.4855 16.8311L13.5197 16.8327L13.8982 16.8505L13.6226 17.1092L13.5977 17.1326L13.6067 17.1656L13.7063 17.5299L13.3753 17.3477L13.3453 17.3312L13.3167 17.35L13.0011 17.5578Z" fill="white" stroke="#002664" stroke-width="0.113599"/>
<path d="M10.6398 17.8937L10.7104 17.5226L10.7167 17.489L10.69 17.4677L10.3949 17.2316L10.7709 17.1839L10.8048 17.1796L10.8169 17.1476L10.9496 16.7955L11.1096 17.136L11.1242 17.167L11.1583 17.1686L11.5368 17.1865L11.2613 17.4451L11.2363 17.4685L11.2454 17.5015L11.3449 17.8659L11.014 17.6836L10.984 17.6671L10.9554 17.686L10.6398 17.8937Z" fill="white" stroke="#002664" stroke-width="0.113599"/>
<path d="M8.32341 18.4562L8.39395 18.0851L8.40034 18.0515L8.37364 18.0302L8.07853 17.7941L8.45446 17.7464L8.4884 17.7421L8.50047 17.7101L8.63316 17.358L8.7932 17.6985L8.80775 17.7295L8.84193 17.7311L9.22044 17.749L8.94487 18.0076L8.91994 18.031L8.92895 18.064L9.02853 18.4284L8.69759 18.2461L8.66757 18.2296L8.63895 18.2485L8.32341 18.4562Z" fill="white" stroke="#002664" stroke-width="0.113599"/>
<path d="M6.09685 19.3097L6.16739 18.9386L6.17378 18.9051L6.14707 18.8837L5.85197 18.6476L6.2279 18.5999L6.26184 18.5956L6.27391 18.5636L6.4066 18.2115L6.56664 18.5521L6.58119 18.583L6.61537 18.5846L6.99388 18.6025L6.71831 18.8611L6.69337 18.8845L6.70239 18.9175L6.80197 19.2819L6.47102 19.0997L6.44101 19.0831L6.41239 19.102L6.09685 19.3097Z" fill="white" stroke="#002664" stroke-width="0.113599"/>
<path d="M4.04216 20.5216L4.1127 20.1506L4.11909 20.117L4.09239 20.0956L3.79728 19.8595L4.17321 19.8119L4.20715 19.8076L4.21922 19.7755L4.35191 19.4234L4.51195 19.764L4.5265 19.7949L4.56068 19.7966L4.93919 19.8144L4.66362 20.0731L4.63869 20.0965L4.6477 20.1294L4.74728 20.4938L4.41634 20.3116L4.38632 20.295L4.3577 20.3139L4.04216 20.5216Z" fill="white" stroke="#002664" stroke-width="0.113599"/>
<path d="M24.8879 15.2345L24.9584 14.8635L24.9648 14.8299L24.9381 14.8085L24.643 14.5724L25.0189 14.5247L25.0529 14.5204L25.0649 14.4884L25.1976 14.1363L25.3577 14.4769L25.3722 14.5078L25.4064 14.5094L25.7849 14.5273L25.5093 14.7859L25.4844 14.8093L25.4934 14.8423L25.593 15.2067L25.262 15.0245L25.232 15.0079L25.2034 15.0268L24.8879 15.2345Z" fill="white" stroke="#002664" stroke-width="0.113599"/>
<path d="M22.5265 14.9796L22.5971 14.6086L22.6035 14.575L22.5768 14.5536L22.2817 14.3175L22.6576 14.2699L22.6915 14.2656L22.7036 14.2335L22.8363 13.8815L22.9963 14.222L23.0109 14.253L23.0451 14.2546L23.4236 14.2724L23.148 14.5311L23.1231 14.5545L23.1321 14.5875L23.2317 14.9518L22.9007 14.7696L22.8707 14.7531L22.8421 14.7719L22.5265 14.9796Z" fill="white" stroke="#002664" stroke-width="0.113599"/>
<path d="M20.1476 14.797L20.2182 14.426L20.2246 14.3924L20.1979 14.371L19.9028 14.1349L20.2787 14.0872L20.3126 14.0829L20.3247 14.0509L20.4574 13.6988L20.6174 14.0394L20.632 14.0703L20.6661 14.0719L21.0447 14.0898L20.7691 14.3484L20.7442 14.3718L20.7532 14.4048L20.8527 14.7692L20.5218 14.587L20.4918 14.5704L20.4632 14.5893L20.1476 14.797Z" fill="white" stroke="#002664" stroke-width="0.113599"/>
<path d="M17.7648 14.7052L17.8354 14.3342L17.8417 14.3006L17.815 14.2792L17.5199 14.0431L17.8959 13.9954L17.9298 13.9911L17.9419 13.9591L18.0746 13.607L18.2346 13.9476L18.2492 13.9785L18.2833 13.9802L18.6618 13.998L18.3863 14.2566L18.3613 14.2801L18.3704 14.313L18.4699 14.6774L18.139 14.4952L18.109 14.4786L18.0804 14.4975L17.7648 14.7052Z" fill="white" stroke="#002664" stroke-width="0.113599"/>
<path d="M15.382 14.7248L15.4525 14.3537L15.4589 14.3201L15.4322 14.2987L15.1371 14.0626L15.5131 14.015L15.547 14.0107L15.5591 13.9787L15.6918 13.6266L15.8518 13.9671L15.8663 13.9981L15.9005 13.9997L16.279 14.0175L16.0035 14.2762L15.9785 14.2996L15.9875 14.3326L16.0871 14.6969L15.7562 14.5147L15.7262 14.4982L15.6975 14.517L15.382 14.7248Z" fill="white" stroke="#002664" stroke-width="0.113599"/>
<path d="M13.0011 14.8839L13.0717 14.5129L13.0781 14.4793L13.0514 14.4579L12.7563 14.2218L13.1322 14.1742L13.1661 14.1699L13.1782 14.1378L13.3109 13.7858L13.4709 14.1263L13.4855 14.1572L13.5197 14.1589L13.8982 14.1767L13.6226 14.4354L13.5977 14.4588L13.6067 14.4917L13.7063 14.8561L13.3753 14.6739L13.3453 14.6574L13.3167 14.6762L13.0011 14.8839Z" fill="white" stroke="#002664" stroke-width="0.113599"/>
<path d="M10.6398 15.2199L10.7104 14.8488L10.7167 14.8152L10.69 14.7938L10.3949 14.5577L10.7709 14.5101L10.8048 14.5058L10.8169 14.4738L10.9496 14.1217L11.1096 14.4622L11.1242 14.4932L11.1583 14.4948L11.5368 14.5127L11.2613 14.7713L11.2363 14.7947L11.2454 14.8277L11.3449 15.192L11.014 15.0098L10.984 14.9933L10.9554 15.0121L10.6398 15.2199Z" fill="white" stroke="#002664" stroke-width="0.113599"/>
<path d="M8.32341 15.7824L8.39395 15.4113L8.40034 15.3777L8.37364 15.3563L8.07853 15.1202L8.45446 15.0726L8.4884 15.0683L8.50047 15.0363L8.63316 14.6842L8.7932 15.0247L8.80775 15.0557L8.84193 15.0573L9.22044 15.0752L8.94487 15.3338L8.91994 15.3572L8.92895 15.3902L9.02853 15.7545L8.69759 15.5723L8.66757 15.5558L8.63895 15.5746L8.32341 15.7824Z" fill="white" stroke="#002664" stroke-width="0.113599"/>
<path d="M6.09685 16.6359L6.16739 16.2648L6.17378 16.2312L6.14707 16.2099L5.85197 15.9737L6.2279 15.9261L6.26184 15.9218L6.27391 15.8898L6.4066 15.5377L6.56664 15.8782L6.58119 15.9092L6.61537 15.9108L6.99388 15.9287L6.71831 16.1873L6.69337 16.2107L6.70239 16.2437L6.80197 16.6081L6.47102 16.4258L6.44101 16.4093L6.41239 16.4281L6.09685 16.6359Z" fill="white" stroke="#002664" stroke-width="0.113599"/>
<path d="M4.04216 17.8478L4.1127 17.4767L4.11909 17.4431L4.09239 17.4218L3.79728 17.1857L4.17321 17.138L4.20715 17.1337L4.21922 17.1017L4.35191 16.7496L4.51195 17.0902L4.5265 17.1211L4.56068 17.1227L4.93919 17.1406L4.66362 17.3992L4.63869 17.4226L4.6477 17.4556L4.74728 17.82L4.41634 17.6377L4.38632 17.6212L4.3577 17.6401L4.04216 17.8478Z" fill="white" stroke="#002664" stroke-width="0.113599"/>
<path d="M24.8879 23.6574L24.9584 23.2863L24.9648 23.2527L24.9381 23.2313L24.643 22.9952L25.0189 22.9476L25.0529 22.9433L25.0649 22.9113L25.1976 22.5592L25.3577 22.8997L25.3722 22.9307L25.4064 22.9323L25.7849 22.9502L25.5093 23.2088L25.4844 23.2322L25.4934 23.2652L25.593 23.6295L25.262 23.4473L25.232 23.4308L25.2034 23.4496L24.8879 23.6574Z" fill="white" stroke="#002664" stroke-width="0.113599"/>
<path d="M22.5265 23.4025L22.5971 23.0314L22.6035 22.9978L22.5768 22.9765L22.2817 22.7403L22.6576 22.6927L22.6915 22.6884L22.7036 22.6564L22.8363 22.3043L22.9963 22.6448L23.0109 22.6758L23.0451 22.6774L23.4236 22.6953L23.148 22.9539L23.1231 22.9773L23.1321 23.0103L23.2317 23.3747L22.9007 23.1924L22.8707 23.1759L22.8421 23.1947L22.5265 23.4025Z" fill="white" stroke="#002664" stroke-width="0.113599"/>
<path d="M20.1476 23.2199L20.2182 22.8488L20.2246 22.8152L20.1979 22.7938L19.9028 22.5577L20.2787 22.5101L20.3126 22.5058L20.3247 22.4738L20.4574 22.1217L20.6174 22.4622L20.632 22.4932L20.6661 22.4948L21.0447 22.5127L20.7691 22.7713L20.7442 22.7947L20.7532 22.8277L20.8527 23.192L20.5218 23.0098L20.4918 22.9933L20.4632 23.0121L20.1476 23.2199Z" fill="white" stroke="#002664" stroke-width="0.113599"/>
<path d="M17.7648 23.1281L17.8354 22.757L17.8417 22.7234L17.815 22.7021L17.5199 22.4659L17.8959 22.4183L17.9298 22.414L17.9419 22.382L18.0746 22.0299L18.2346 22.3704L18.2492 22.4014L18.2833 22.403L18.6618 22.4209L18.3863 22.6795L18.3613 22.7029L18.3704 22.7359L18.4699 23.1003L18.139 22.918L18.109 22.9015L18.0804 22.9203L17.7648 23.1281Z" fill="white" stroke="#002664" stroke-width="0.113599"/>
<path d="M15.382 23.1476L15.4525 22.7765L15.4589 22.7429L15.4322 22.7216L15.1371 22.4855L15.5131 22.4378L15.547 22.4335L15.5591 22.4015L15.6918 22.0494L15.8518 22.39L15.8663 22.4209L15.9005 22.4225L16.279 22.4404L16.0035 22.699L15.9785 22.7224L15.9875 22.7554L16.0871 23.1198L15.7562 22.9375L15.7262 22.921L15.6975 22.9399L15.382 23.1476Z" fill="white" stroke="#002664" stroke-width="0.113599"/>
<path d="M13.0011 23.3068L13.0717 22.9357L13.0781 22.9021L13.0514 22.8808L12.7563 22.6446L13.1322 22.597L13.1661 22.5927L13.1782 22.5607L13.3109 22.2086L13.4709 22.5491L13.4855 22.5801L13.5197 22.5817L13.8982 22.5996L13.6226 22.8582L13.5977 22.8816L13.6067 22.9146L13.7063 23.279L13.3753 23.0967L13.3453 23.0802L13.3167 23.099L13.0011 23.3068Z" fill="white" stroke="#002664" stroke-width="0.113599"/>
<path d="M10.6398 23.6427L10.7104 23.2717L10.7167 23.2381L10.69 23.2167L10.3949 22.9806L10.7709 22.9329L10.8048 22.9286L10.8169 22.8966L10.9496 22.5445L11.1096 22.8851L11.1242 22.916L11.1583 22.9177L11.5368 22.9355L11.2613 23.1941L11.2363 23.2176L11.2454 23.2505L11.3449 23.6149L11.014 23.4327L10.984 23.4161L10.9554 23.435L10.6398 23.6427Z" fill="white" stroke="#002664" stroke-width="0.113599"/>
<path d="M8.32341 24.2052L8.39395 23.8342L8.40034 23.8006L8.37364 23.7792L8.07853 23.5431L8.45446 23.4954L8.4884 23.4911L8.50047 23.4591L8.63316 23.107L8.7932 23.4476L8.80775 23.4785L8.84193 23.4802L9.22044 23.498L8.94487 23.7566L8.91994 23.7801L8.92895 23.813L9.02853 24.1774L8.69759 23.9952L8.66757 23.9786L8.63895 23.9975L8.32341 24.2052Z" fill="white" stroke="#002664" stroke-width="0.113599"/>
<path d="M6.09685 25.0588L6.16739 24.6877L6.17378 24.6541L6.14707 24.6327L5.85197 24.3966L6.2279 24.349L6.26184 24.3447L6.27391 24.3126L6.4066 23.9606L6.56664 24.3011L6.58119 24.3321L6.61537 24.3337L6.99388 24.3515L6.71831 24.6102L6.69337 24.6336L6.70239 24.6666L6.80197 25.0309L6.47102 24.8487L6.44101 24.8322L6.41239 24.851L6.09685 25.0588Z" fill="white" stroke="#002664" stroke-width="0.113599"/>
<path d="M4.04216 26.2707L4.1127 25.8996L4.11909 25.866L4.09239 25.8446L3.79728 25.6085L4.17321 25.5609L4.20715 25.5566L4.21922 25.5246L4.35191 25.1725L4.51195 25.513L4.5265 25.544L4.56068 25.5456L4.93919 25.5634L4.66362 25.8221L4.63869 25.8455L4.6477 25.8785L4.74728 26.2428L4.41634 26.0606L4.38632 26.0441L4.3577 26.0629L4.04216 26.2707Z" fill="white" stroke="#002664" stroke-width="0.113599"/>
<path d="M23.6113 12.1404L23.6917 11.7713L23.699 11.7379L23.6728 11.7158L23.3841 11.4719L23.7612 11.4343L23.7952 11.4309L23.8081 11.3992L23.9501 11.0508L24.1011 11.3954L24.1148 11.4268L24.1489 11.4293L24.5268 11.4572L24.2445 11.7084L24.2189 11.7311L24.2271 11.7644L24.317 12.1312L23.991 11.9403L23.9614 11.923L23.9323 11.941L23.6113 12.1404Z" fill="white" stroke="#002664" stroke-width="0.113599"/>
<path d="M21.2403 11.8952L21.3206 11.5262L21.3279 11.4928L21.3018 11.4707L21.013 11.2268L21.3901 11.1892L21.4241 11.1858L21.437 11.1541L21.579 10.8056L21.73 11.1503L21.7437 11.1816L21.7778 11.1842L22.1557 11.212L21.8734 11.4633L21.8478 11.486L21.856 11.5192L21.9459 11.8861L21.6199 11.6952L21.5903 11.6778L21.5612 11.6959L21.2403 11.8952Z" fill="white" stroke="#002664" stroke-width="0.113599"/>
<path d="M18.8594 11.7409L18.9397 11.3719L18.947 11.3385L18.9209 11.3164L18.6322 11.0725L19.0092 11.0349L19.0433 11.0315L19.0562 10.9998L19.1982 10.6513L19.3491 10.996L19.3628 11.0273L19.397 11.0299L19.7749 11.0577L19.4925 11.309L19.467 11.3317L19.4751 11.3649L19.565 11.7318L19.239 11.5409L19.2094 11.5236L19.1803 11.5416L18.8594 11.7409Z" fill="white" stroke="#002664" stroke-width="0.113599"/>
<path d="M16.4746 11.697L16.555 11.3279L16.5623 11.2945L16.5361 11.2724L16.2474 11.0286L16.6244 10.9909L16.6585 10.9875L16.6714 10.9558L16.8134 10.6074L16.9643 10.9521L16.9781 10.9834L17.0122 10.9859L17.3901 11.0138L17.1078 11.265L17.0822 11.2878L17.0904 11.321L17.1802 11.6879L16.8542 11.4969L16.8247 11.4796L16.7956 11.4977L16.4746 11.697Z" fill="white" stroke="#002664" stroke-width="0.113599"/>
<path d="M14.0918 11.7927L14.1722 11.4236L14.1794 11.3902L14.1533 11.3681L13.8646 11.1243L14.2416 11.0866L14.2757 11.0832L14.2886 11.0516L14.4306 10.7031L14.5815 11.0478L14.5953 11.0791L14.6294 11.0816L15.0073 11.1095L14.7249 11.3607L14.6994 11.3835L14.7075 11.4167L14.7974 11.7836L14.4714 11.5926L14.4419 11.5753L14.4128 11.5934L14.0918 11.7927Z" fill="white" stroke="#002664" stroke-width="0.113599"/>
<path d="M11.7246 12.0661L11.805 11.6971L11.8123 11.6637L11.7861 11.6416L11.4974 11.3977L11.8744 11.3601L11.9085 11.3567L11.9214 11.325L12.0634 10.9765L12.2143 11.3212L12.2281 11.3525L12.2622 11.3551L12.6401 11.3829L12.3578 11.6342L12.3322 11.6569L12.3404 11.6901L12.4302 12.057L12.1042 11.8661L12.0747 11.8487L12.0456 11.8668L11.7246 12.0661Z" fill="white" stroke="#002664" stroke-width="0.113599"/>
<path d="M9.3926 12.5671L9.47295 12.198L9.48022 12.1646L9.4541 12.1426L9.16536 11.8987L9.54242 11.8611L9.57646 11.8577L9.58937 11.826L9.73135 11.4775L9.88231 11.8222L9.89603 11.8535L9.93016 11.856L10.3081 11.8839L10.0257 12.1352L10.0002 12.1579L10.0083 12.1911L10.0982 12.558L9.77221 12.367L9.74265 12.3497L9.71354 12.3678L9.3926 12.5671Z" fill="white" stroke="#002664" stroke-width="0.113599"/>
<path d="M7.14455 13.3611L7.2249 12.992L7.23218 12.9586L7.20605 12.9365L6.91731 12.6927L7.29437 12.655L7.32841 12.6516L7.34133 12.6199L7.48331 12.2715L7.63426 12.6161L7.64799 12.6475L7.68211 12.65L8.06002 12.6779L7.77768 12.9291L7.75214 12.9518L7.76028 12.9851L7.85016 13.3519L7.52416 13.161L7.4946 13.1437L7.46549 13.1617L7.14455 13.3611Z" fill="white" stroke="#002664" stroke-width="0.113599"/>
<path d="M5.05861 14.5173L5.13897 14.1482L5.14624 14.1148L5.12012 14.0928L4.83137 13.8489L5.20843 13.8112L5.24248 13.8078L5.25539 13.7762L5.39737 13.4277L5.54832 13.7724L5.56205 13.8037L5.59617 13.8062L5.97408 13.8341L5.69175 14.0854L5.6662 14.1081L5.67434 14.1413L5.76422 14.5082L5.43823 14.3172L5.40866 14.2999L5.37955 14.318L5.05861 14.5173Z" fill="white" stroke="#002664" stroke-width="0.113599"/>
<path d="M23.6113 20.5632L23.6917 20.1941L23.699 20.1607L23.6728 20.1387L23.3841 19.8948L23.7612 19.8571L23.7952 19.8537L23.8081 19.8221L23.9501 19.4736L24.1011 19.8183L24.1148 19.8496L24.1489 19.8521L24.5268 19.88L24.2445 20.1313L24.2189 20.154L24.2271 20.1872L24.317 20.5541L23.991 20.3631L23.9614 20.3458L23.9323 20.3639L23.6113 20.5632Z" fill="white" stroke="#002664" stroke-width="0.113599"/>
<path d="M21.2403 20.3181L21.3206 19.949L21.3279 19.9156L21.3018 19.8935L21.013 19.6497L21.3901 19.612L21.4241 19.6086L21.437 19.5769L21.579 19.2285L21.73 19.5732L21.7437 19.6045L21.7778 19.607L22.1557 19.6349L21.8734 19.8861L21.8478 19.9089L21.856 19.9421L21.9459 20.309L21.6199 20.118L21.5903 20.1007L21.5612 20.1188L21.2403 20.3181Z" fill="white" stroke="#002664" stroke-width="0.113599"/>
<path d="M18.8594 20.1638L18.9397 19.7947L18.947 19.7613L18.9209 19.7392L18.6322 19.4954L19.0092 19.4577L19.0433 19.4543L19.0562 19.4226L19.1982 19.0742L19.3491 19.4189L19.3628 19.4502L19.397 19.4527L19.7749 19.4806L19.4925 19.7318L19.467 19.7546L19.4751 19.7878L19.565 20.1547L19.239 19.9637L19.2094 19.9464L19.1803 19.9645L18.8594 20.1638Z" fill="white" stroke="#002664" stroke-width="0.113599"/>
<path d="M16.4746 20.1199L16.555 19.7508L16.5623 19.7174L16.5361 19.6953L16.2474 19.4514L16.6244 19.4138L16.6585 19.4104L16.6714 19.3787L16.8134 19.0303L16.9643 19.3749L16.9781 19.4062L17.0122 19.4088L17.3901 19.4366L17.1078 19.6879L17.0822 19.7106L17.0904 19.7438L17.1802 20.1107L16.8542 19.9198L16.8247 19.9025L16.7956 19.9205L16.4746 20.1199Z" fill="white" stroke="#002664" stroke-width="0.113599"/>
<path d="M14.0918 20.2156L14.1722 19.8465L14.1794 19.8131L14.1533 19.791L13.8646 19.5471L14.2416 19.5095L14.2757 19.5061L14.2886 19.4744L14.4306 19.126L14.5815 19.4706L14.5953 19.502L14.6294 19.5045L15.0073 19.5324L14.7249 19.7836L14.6994 19.8063L14.7075 19.8395L14.7974 20.2064L14.4714 20.0155L14.4419 19.9982L14.4128 20.0162L14.0918 20.2156Z" fill="white" stroke="#002664" stroke-width="0.113599"/>
<path d="M11.7227 20.489L11.803 20.1199L11.8103 20.0865L11.7842 20.0644L11.4954 19.8206L11.8725 19.7829L11.9065 19.7795L11.9195 19.7478L12.0614 19.3994L12.2124 19.744L12.2261 19.7754L12.2602 19.7779L12.6381 19.8058L12.3558 20.057L12.3303 20.0798L12.3384 20.113L12.4283 20.4799L12.1023 20.2889L12.0727 20.2716L12.0436 20.2897L11.7227 20.489Z" fill="white" stroke="#002664" stroke-width="0.113599"/>
<path d="M9.3926 20.99L9.47295 20.6209L9.48022 20.5875L9.4541 20.5654L9.16536 20.3216L9.54242 20.2839L9.57646 20.2805L9.58937 20.2488L9.73135 19.9004L9.88231 20.245L9.89603 20.2764L9.93016 20.2789L10.3081 20.3068L10.0257 20.558L10.0002 20.5807L10.0083 20.614L10.0982 20.9808L9.77221 20.7899L9.74265 20.7726L9.71354 20.7907L9.3926 20.99Z" fill="white" stroke="#002664" stroke-width="0.113599"/>
<path d="M7.1426 21.7839L7.22295 21.4148L7.23022 21.3814L7.2041 21.3594L6.91536 21.1155L7.29242 21.0778L7.32646 21.0744L7.33937 21.0428L7.48135 20.6943L7.63231 21.039L7.64603 21.0703L7.68016 21.0728L8.05806 21.1007L7.77573 21.352L7.75019 21.3747L7.75832 21.4079L7.84821 21.7748L7.52221 21.5838L7.49265 21.5665L7.46354 21.5846L7.1426 21.7839Z" fill="white" stroke="#002664" stroke-width="0.113599"/>
<path d="M5.05861 22.9402L5.13897 22.5711L5.14624 22.5377L5.12012 22.5156L4.83137 22.2718L5.20843 22.2341L5.24248 22.2307L5.25539 22.199L5.39737 21.8506L5.54832 22.1952L5.56205 22.2266L5.59617 22.2291L5.97408 22.257L5.69175 22.5082L5.6662 22.5309L5.67434 22.5642L5.76422 22.931L5.43823 22.7401L5.40866 22.7228L5.37955 22.7408L5.05861 22.9402Z" fill="white" stroke="#002664" stroke-width="0.113599"/>
<path d="M1.5 2.5V61.5" stroke="#002664"/>
<circle cx="1.5" cy="1.5" r="1" fill="#002664" stroke="#002664"/>
</svg>
