<svg width="20" height="21" viewBox="0 0 20 21" fill="none" xmlns="http://www.w3.org/2000/svg">
<mask id="mask0_2201_89" style="mask-type:alpha" maskUnits="userSpaceOnUse" x="0" y="0" width="20" height="21">
<rect y="0.5" width="20" height="20" fill="#D9D9D9"/>
</mask>
<g mask="url(#mask0_2201_89)">
<path d="M15.4717 17.0628C13.9567 16.9378 12.5005 16.5379 11.1031 15.8633C9.70567 15.1886 8.44045 14.2834 7.30746 13.1477C6.17444 12.012 5.27754 10.7503 4.61675 9.36249C3.95596 7.97467 3.55612 6.52329 3.41723 5.00835C3.38945 4.71439 3.47477 4.45901 3.67318 4.2422C3.8716 4.0254 4.11962 3.91699 4.41723 3.91699H6.59348C6.84561 3.91699 7.0625 3.99258 7.24412 4.14376C7.42575 4.29494 7.55234 4.49233 7.62391 4.73591L8.05981 6.47947C8.09293 6.66537 8.08252 6.847 8.02856 7.02435C7.97462 7.20169 7.88674 7.34592 7.76493 7.45703L5.84027 9.33043C6.1501 9.91162 6.49359 10.4586 6.87073 10.9715C7.24787 11.4843 7.66111 11.9639 8.11046 12.4102C8.55428 12.8538 9.03366 13.2647 9.54862 13.643C10.0636 14.0212 10.6197 14.3652 11.2169 14.675L13.1912 12.7471C13.3077 12.6253 13.4413 12.5441 13.5919 12.5035C13.7425 12.4629 13.9108 12.4565 14.0967 12.4843L15.7649 12.8513C16.0171 12.9207 16.2166 13.0489 16.3635 13.2359C16.5104 13.4229 16.5839 13.6451 16.5839 13.9026V16.0628C16.5839 16.3604 16.472 16.6084 16.2482 16.8068C16.0245 17.0052 15.7656 17.0906 15.4717 17.0628ZM5.3531 8.27276L6.92362 6.76635C6.95033 6.74497 6.96769 6.71559 6.97571 6.6782C6.98372 6.6408 6.98239 6.60608 6.97171 6.57403L6.60618 5.12851C6.5955 5.08578 6.57681 5.05373 6.5501 5.03237C6.52338 5.01099 6.48865 5.00031 6.44591 5.00031H4.64637C4.61433 5.00031 4.58762 5.01099 4.56625 5.03237C4.54487 5.05373 4.53418 5.08044 4.53418 5.11249C4.57692 5.64027 4.67014 6.16671 4.81383 6.69183C4.95754 7.21694 5.1373 7.74392 5.3531 8.27276ZM12.3114 15.183C12.8096 15.4022 13.3305 15.5686 13.8742 15.6823C14.4178 15.796 14.9225 15.8796 15.3884 15.933C15.4204 15.933 15.4471 15.9223 15.4685 15.901C15.4899 15.8796 15.5005 15.8529 15.5005 15.8208V14.026C15.5005 13.9832 15.4899 13.9485 15.4685 13.9218C15.4471 13.8951 15.4151 13.8764 15.3723 13.8657L14.0182 13.5724C13.9861 13.5617 13.9581 13.5604 13.934 13.5684C13.91 13.5764 13.8846 13.5938 13.8579 13.6205L12.3114 15.183Z" fill="#181818"/>
</g>
</svg>
