<svg width="16" height="17" viewBox="0 0 16 17" fill="none" xmlns="http://www.w3.org/2000/svg">
<path d="M13.776 13.014C13.776 13.014 13.0036 13.7727 12.8143 13.9951C12.5059 14.3242 12.1426 14.4796 11.6663 14.4796C11.6205 14.4796 11.5717 14.4796 11.5259 14.4765C10.6191 14.4186 9.77644 14.0652 9.14444 13.7635C7.41637 12.9287 5.89896 11.7435 4.63802 10.2413C3.5969 8.98906 2.90078 7.83124 2.43976 6.58811C2.15582 5.82943 2.05201 5.23834 2.09781 4.68076C2.12834 4.32427 2.26573 4.02872 2.51914 3.77583L3.56026 2.73684C3.70986 2.59668 3.86863 2.52051 4.02434 2.52051C4.21668 2.52051 4.37239 2.63629 4.47009 2.73379C4.47315 2.73684 4.4762 2.73988 4.47925 2.74293C4.66549 2.9166 4.84258 3.09637 5.02882 3.28833C5.12346 3.38583 5.22116 3.48333 5.31886 3.58387L6.15237 4.41568C6.476 4.73865 6.476 5.03724 6.15237 5.36021C6.06383 5.44857 5.97834 5.53693 5.8898 5.62224C5.63334 5.88428 5.8348 5.68322 5.56918 5.92088C5.56307 5.92697 5.55697 5.93002 5.55391 5.93611C5.29135 6.19815 5.3402 6.45409 5.39515 6.62776C5.39821 6.6369 5.40126 6.64604 5.40431 6.65518C5.62108 7.17925 5.9264 7.67284 6.39047 8.26089L6.39353 8.26394C7.23619 9.29988 8.12465 10.1073 9.10471 10.7258C9.22989 10.805 9.35812 10.869 9.48024 10.93C9.59016 10.9848 9.69396 11.0366 9.7825 11.0915C9.79471 11.0976 9.80693 11.1067 9.81914 11.1128C9.92295 11.1646 10.0206 11.189 10.1214 11.189C10.3748 11.189 10.5336 11.0305 10.5855 10.9787L11.1839 10.3815C11.2877 10.2779 11.4526 10.153 11.645 10.153C11.8342 10.153 11.99 10.2718 12.0846 10.3754C12.0877 10.3784 12.0877 10.3784 12.0907 10.3815L13.773 12.0603C14.0875 12.3711 13.776 13.014 13.776 13.014Z" stroke="#181818" stroke-width="1.33333" stroke-linecap="round" stroke-linejoin="round"/>
</svg>
