<svg width="52" height="62" viewBox="0 0 52 62" fill="none" xmlns="http://www.w3.org/2000/svg">
<path d="M2 45L6 39" stroke="#F8F8F8"/>
<path d="M25.7949 7.12698C11.9286 5.67267 4.53159 8.67556 2.56641 10.3588V12.899C4.53159 11.2158 11.9286 8.21291 25.7949 9.66723C39.6613 11.1215 48.709 6.18854 51.4996 3.54025V1C48.709 3.64829 39.6613 8.5813 25.7949 7.12698Z" fill="#F8F8F8"/>
<path d="M2.56641 15.4393V17.9795C4.53159 16.2963 11.9286 13.2934 25.7949 14.7477C39.6613 16.202 48.709 11.269 51.4996 8.62074V6.08049C48.709 8.72879 39.6613 13.6618 25.7949 12.2075C11.9286 10.7532 4.53159 13.7561 2.56641 15.4393Z" fill="#F8F8F8"/>
<path d="M2.56641 20.5198V23.06C4.53159 21.3768 11.9286 18.3739 25.7949 19.8282C39.6613 21.2825 48.709 16.3495 51.4996 13.7012V11.161C48.709 13.8093 39.6613 18.7423 25.7949 17.288C11.9286 15.8336 4.53159 18.8365 2.56641 20.5198Z" fill="#F8F8F8"/>
<path d="M2.56641 25.6003V28.1405C4.53159 26.4573 11.9286 23.4544 25.7949 24.9087C39.6613 26.363 48.709 21.43 51.4996 18.7817V16.2415C48.709 18.8898 39.6613 23.8228 25.7949 22.3685C11.9286 20.9141 4.53159 23.917 2.56641 25.6003Z" fill="#F8F8F8"/>
<path d="M2.56641 30.6808V33.0873C4.53159 31.4281 11.9286 28.4681 25.7949 29.9017C39.6613 31.3352 48.709 26.4727 51.4996 23.8622V21.322C48.709 23.9703 39.6613 28.9033 25.7949 27.4489C11.9286 25.9946 4.53159 28.9975 2.56641 30.6808Z" fill="#F8F8F8"/>
<path d="M2.56641 35.6276V38.3015C4.53159 36.6183 11.9286 33.6154 25.7949 35.0697C39.6613 36.524 48.709 31.591 51.4996 28.9427V26.4025C48.709 29.0129 39.6613 33.8755 25.7949 32.4419C11.9286 31.0084 4.53159 33.9684 2.56641 35.6276Z" fill="#F8F8F8"/>
<path d="M2.56641 10.3588C4.53159 8.67556 11.9286 5.67267 25.7949 7.12698C39.6613 8.5813 48.709 3.64829 51.4996 1M2.56641 10.3588V40.8417C4.53159 39.1585 11.9286 36.1556 25.7949 37.6099C39.6613 39.0642 48.709 34.1312 51.4996 31.4829M2.56641 10.3588V12.899C4.53159 11.2158 11.9286 8.21291 25.7949 9.66723C39.6613 11.1215 48.709 6.18854 51.4996 3.54025V1M51.4996 1V31.5498M2.56641 15.4393C4.53159 13.7561 11.9286 10.7532 25.7949 12.2075C39.6613 13.6618 48.709 8.72878 51.4996 6.08049V8.62074C48.709 11.269 39.6613 16.202 25.7949 14.7477C11.9286 13.2934 4.53159 16.2963 2.56641 17.9795V15.4393ZM2.56641 20.5198C4.53159 18.8365 11.9286 15.8336 25.7949 17.288C39.6613 18.7423 48.709 13.8093 51.4996 11.161V13.7012C48.709 16.3495 39.6613 21.2825 25.7949 19.8282C11.9286 18.3739 4.53159 21.3768 2.56641 23.06V20.5198ZM2.56641 25.6003C4.53159 23.917 11.9286 20.9141 25.7949 22.3685C39.6613 23.8228 48.709 18.8898 51.4996 16.2415V18.7817C48.709 21.43 39.6613 26.363 25.7949 24.9087C11.9286 23.4544 4.53159 26.4573 2.56641 28.1405V25.6003ZM2.56641 30.6808C4.53159 28.9975 11.9286 25.9946 25.7949 27.4489C39.6613 28.9033 48.709 23.9703 51.4996 21.322V23.8622C48.709 26.4727 39.6613 31.3352 25.7949 29.9017C11.9286 28.4681 4.53159 31.4281 2.56641 33.0873V30.6808ZM2.56641 35.6276C4.53159 33.9684 11.9286 31.0084 25.7949 32.4419C39.6613 33.8755 48.709 29.0129 51.4996 26.4025V28.9427C48.709 31.591 39.6613 36.524 25.7949 35.0697C11.9286 33.6154 4.53159 36.6183 2.56641 38.3015V35.6276Z" stroke="#F8F8F8" stroke-width="0.133697"/>
<path d="M2.56685 28.1663V10.3259C5.15997 8.44531 8.59986 7.35904 12.7241 6.90516C16.8475 6.45137 21.6506 6.63018 26.9666 7.27603V25.0239C16.3891 24.3096 10.6812 24.1508 2.56685 28.1663Z" fill="#F8F8F8" stroke="#F8F8F8" stroke-width="0.133697"/>
<path d="M24.807 9.60676L24.9026 9.10382L24.5027 8.78388L25.0118 8.71937L25.1919 8.24153L25.4091 8.70369L25.9216 8.72786L25.5482 9.07834L25.6832 9.57217L25.2346 9.3252L24.807 9.60676Z" fill="#002664"/>
<path d="M22.4457 9.35187L22.5413 8.84894L22.1414 8.52899L22.6504 8.46449L22.8305 7.98664L23.0477 8.4488L23.5603 8.47298L23.1869 8.82345L23.3218 9.31729L22.8733 9.07031L22.4457 9.35187Z" fill="#002664"/>
<path d="M20.0668 9.16926L20.1624 8.66632L19.7625 8.34638L20.2715 8.28187L20.4516 7.80403L20.6688 8.26619L21.1814 8.29036L20.808 8.64084L20.9429 9.13467L20.4944 8.8877L20.0668 9.16926Z" fill="#002664"/>
<path d="M17.6839 9.07746L17.7796 8.57453L17.3797 8.25458L17.8887 8.19007L18.0688 7.71223L18.286 8.17439L18.7986 8.19857L18.4251 8.54904L18.5601 9.04287L18.1116 8.7959L17.6839 9.07746Z" fill="#002664"/>
<path d="M15.3011 9.09699L15.3967 8.59406L14.9969 8.27411L15.5059 8.20961L15.686 7.73176L15.9032 8.19392L16.4157 8.2181L16.0423 8.56857L16.1773 9.0624L15.7288 8.81543L15.3011 9.09699Z" fill="#002664"/>
<path d="M12.9203 9.25617L13.0159 8.75324L12.616 8.43329L13.1251 8.36879L13.3051 7.89094L13.5223 8.3531L14.0349 8.37728L13.6615 8.72775L13.7964 9.22158L13.3479 8.97461L12.9203 9.25617Z" fill="#002664"/>
<path d="M10.5589 9.59211L10.6546 9.08917L10.2547 8.76923L10.7637 8.70472L10.9438 8.22688L11.161 8.68904L11.6736 8.71321L11.3001 9.06369L11.4351 9.55752L10.9866 9.31055L10.5589 9.59211Z" fill="#002664"/>
<path d="M8.24254 10.1556L8.33815 9.65265L7.93827 9.3327L8.44732 9.2682L8.62741 8.79035L8.84461 9.25252L9.35715 9.27669L8.98374 9.62717L9.1187 10.121L8.67019 9.87402L8.24254 10.1556Z" fill="#002664"/>
<path d="M6.01598 11.0081L6.11159 10.5052L5.71171 10.1852L6.22076 10.1207L6.40085 9.64289L6.61804 10.1051L7.13059 10.1292L6.75718 10.4797L6.89214 10.9735L6.44363 10.7266L6.01598 11.0081Z" fill="#002664"/>
<path d="M3.96129 12.22L4.0569 11.7171L3.65702 11.3972L4.16607 11.3327L4.34616 10.8548L4.56336 11.317L5.0759 11.3411L4.70249 11.6916L4.83745 12.1854L4.38894 11.9385L3.96129 12.22Z" fill="#002664"/>
<path d="M24.807 18.0296L24.9026 17.5267L24.5027 17.2067L25.0118 17.1422L25.1919 16.6644L25.4091 17.1265L25.9216 17.1507L25.5482 17.5012L25.6832 17.995L25.2346 17.748L24.807 18.0296Z" fill="#002664"/>
<path d="M22.4457 17.7747L22.5413 17.2718L22.1414 16.9518L22.6504 16.8873L22.8305 16.4095L23.0477 16.8717L23.5603 16.8958L23.1869 17.2463L23.3218 17.7401L22.8733 17.4932L22.4457 17.7747Z" fill="#002664"/>
<path d="M20.0668 17.5921L20.1624 17.0892L19.7625 16.7692L20.2715 16.7047L20.4516 16.2269L20.6688 16.689L21.1814 16.7132L20.808 17.0637L20.9429 17.5575L20.4944 17.3105L20.0668 17.5921Z" fill="#002664"/>
<path d="M17.6839 17.5003L17.7796 16.9974L17.3797 16.6774L17.8887 16.6129L18.0688 16.1351L18.286 16.5972L18.7986 16.6214L18.4251 16.9719L18.5601 17.4657L18.1116 17.2187L17.6839 17.5003Z" fill="#002664"/>
<path d="M15.3011 17.5198L15.3967 17.0169L14.9969 16.697L15.5059 16.6325L15.686 16.1546L15.9032 16.6168L16.4157 16.6409L16.0423 16.9914L16.1773 17.4853L15.7288 17.2383L15.3011 17.5198Z" fill="#002664"/>
<path d="M12.9203 17.679L13.0159 17.1761L12.616 16.8561L13.1251 16.7916L13.3051 16.3138L13.5223 16.776L14.0349 16.8001L13.6615 17.1506L13.7964 17.6444L13.3479 17.3975L12.9203 17.679Z" fill="#002664"/>
<path d="M10.5589 18.015L10.6546 17.512L10.2547 17.1921L10.7637 17.1276L10.9438 16.6497L11.161 17.1119L11.6736 17.1361L11.3001 17.4865L11.4351 17.9804L10.9866 17.7334L10.5589 18.015Z" fill="#002664"/>
<path d="M8.24254 18.5784L8.33815 18.0755L7.93827 17.7556L8.44732 17.6911L8.62741 17.2132L8.84461 17.6754L9.35715 17.6995L8.98374 18.05L9.1187 18.5438L8.67019 18.2969L8.24254 18.5784Z" fill="#002664"/>
<path d="M6.01598 19.431L6.11159 18.928L5.71171 18.6081L6.22076 18.5436L6.40085 18.0657L6.61804 18.5279L7.13059 18.5521L6.75718 18.9026L6.89214 19.3964L6.44363 19.1494L6.01598 19.431Z" fill="#002664"/>
<path d="M3.96129 20.6429L4.0569 20.14L3.65702 19.82L4.16607 19.7555L4.34616 19.2777L4.56336 19.7398L5.0759 19.764L4.70249 20.1145L4.83745 20.6083L4.38894 20.3613L3.96129 20.6429Z" fill="#002664"/>
<path d="M24.807 15.3558L24.9026 14.8528L24.5027 14.5329L25.0118 14.4684L25.1919 13.9905L25.4091 14.4527L25.9216 14.4769L25.5482 14.8274L25.6832 15.3212L25.2346 15.0742L24.807 15.3558Z" fill="#002664"/>
<path d="M22.4457 15.1009L22.5413 14.598L22.1414 14.278L22.6504 14.2135L22.8305 13.7357L23.0477 14.1978L23.5603 14.222L23.1869 14.5725L23.3218 15.0663L22.8733 14.8193L22.4457 15.1009Z" fill="#002664"/>
<path d="M20.0668 14.9183L20.1624 14.4153L19.7625 14.0954L20.2715 14.0309L20.4516 13.553L20.6688 14.0152L21.1814 14.0394L20.808 14.3899L20.9429 14.8837L20.4944 14.6367L20.0668 14.9183Z" fill="#002664"/>
<path d="M17.6839 14.8265L17.7796 14.3235L17.3797 14.0036L17.8887 13.9391L18.0688 13.4613L18.286 13.9234L18.7986 13.9476L18.4251 14.2981L18.5601 14.7919L18.1116 14.5449L17.6839 14.8265Z" fill="#002664"/>
<path d="M15.3011 14.846L15.3967 14.3431L14.9969 14.0231L15.5059 13.9586L15.686 13.4808L15.9032 13.9429L16.4157 13.9671L16.0423 14.3176L16.1773 14.8114L15.7288 14.5645L15.3011 14.846Z" fill="#002664"/>
<path d="M12.9203 15.0052L13.0159 14.5023L12.616 14.1823L13.1251 14.1178L13.3051 13.64L13.5223 14.1021L14.0349 14.1263L13.6615 14.4768L13.7964 14.9706L13.3479 14.7236L12.9203 15.0052Z" fill="#002664"/>
<path d="M10.5589 15.3411L10.6546 14.8382L10.2547 14.5183L10.7637 14.4537L10.9438 13.9759L11.161 14.4381L11.6736 14.4622L11.3001 14.8127L11.4351 15.3065L10.9866 15.0596L10.5589 15.3411Z" fill="#002664"/>
<path d="M8.24254 15.9046L8.33815 15.4017L7.93827 15.0817L8.44732 15.0172L8.62741 14.5394L8.84461 15.0015L9.35715 15.0257L8.98374 15.3762L9.1187 15.87L8.67019 15.623L8.24254 15.9046Z" fill="#002664"/>
<path d="M6.01598 16.7571L6.11159 16.2542L5.71171 15.9343L6.22076 15.8698L6.40085 15.3919L6.61804 15.8541L7.13059 15.8783L6.75718 16.2287L6.89214 16.7226L6.44363 16.4756L6.01598 16.7571Z" fill="#002664"/>
<path d="M3.96129 17.9691L4.0569 17.4661L3.65702 17.1462L4.16607 17.0817L4.34616 16.6038L4.56336 17.066L5.0759 17.0902L4.70249 17.4406L4.83745 17.9345L4.38894 17.6875L3.96129 17.9691Z" fill="#002664"/>
<path d="M24.807 23.7786L24.9026 23.2757L24.5027 22.9558L25.0118 22.8912L25.1919 22.4134L25.4091 22.8756L25.9216 22.8997L25.5482 23.2502L25.6832 23.744L25.2346 23.4971L24.807 23.7786Z" fill="#002664"/>
<path d="M22.4457 23.5237L22.5413 23.0208L22.1414 22.7009L22.6504 22.6364L22.8305 22.1585L23.0477 22.6207L23.5603 22.6449L23.1869 22.9953L23.3218 23.4892L22.8733 23.2422L22.4457 23.5237Z" fill="#002664"/>
<path d="M20.0668 23.3421L20.1624 22.8392L19.7625 22.5192L20.2715 22.4547L20.4516 21.9769L20.6688 22.439L21.1814 22.4632L20.808 22.8137L20.9429 23.3075L20.4944 23.0605L20.0668 23.3421Z" fill="#002664"/>
<path d="M17.6839 23.2493L17.7796 22.7464L17.3797 22.4265L17.8887 22.3619L18.0688 21.8841L18.286 22.3463L18.7986 22.3704L18.4251 22.7209L18.5601 23.2147L18.1116 22.9678L17.6839 23.2493Z" fill="#002664"/>
<path d="M15.3011 23.2689L15.3967 22.7659L14.9969 22.446L15.5059 22.3815L15.686 21.9036L15.9032 22.3658L16.4157 22.39L16.0423 22.7404L16.1773 23.2343L15.7288 22.9873L15.3011 23.2689Z" fill="#002664"/>
<path d="M12.9203 23.428L13.0159 22.9251L12.616 22.6052L13.1251 22.5407L13.3051 22.0628L13.5223 22.525L14.0349 22.5492L13.6615 22.8996L13.7964 23.3935L13.3479 23.1465L12.9203 23.428Z" fill="#002664"/>
<path d="M10.5589 23.764L10.6546 23.261L10.2547 22.9411L10.7637 22.8766L10.9438 22.3988L11.161 22.8609L11.6736 22.8851L11.3001 23.2356L11.4351 23.7294L10.9866 23.4824L10.5589 23.764Z" fill="#002664"/>
<path d="M8.24254 24.3275L8.33815 23.8245L7.93827 23.5046L8.44732 23.4401L8.62741 22.9622L8.84461 23.4244L9.35715 23.4486L8.98374 23.799L9.1187 24.2929L8.67019 24.0459L8.24254 24.3275Z" fill="#002664"/>
<path d="M6.01598 25.18L6.11159 24.6771L5.71171 24.3571L6.22076 24.2926L6.40085 23.8148L6.61804 24.2769L7.13059 24.3011L6.75718 24.6516L6.89214 25.1454L6.44363 24.8984L6.01598 25.18Z" fill="#002664"/>
<path d="M3.96129 26.3919L4.0569 25.889L3.65702 25.569L4.16607 25.5045L4.34616 25.0267L4.56336 25.4888L5.0759 25.513L4.70249 25.8635L4.83745 26.3573L4.38894 26.1104L3.96129 26.3919Z" fill="#002664"/>
<path d="M23.5273 12.2594L23.6362 11.7592L23.2449 11.4288L23.7555 11.3778L23.9482 10.9049L24.1531 11.3726L24.6648 11.4104L24.2822 11.7508L24.4041 12.2481L23.9623 11.9893L23.5273 12.2594Z" fill="#002664"/>
<path d="M21.1562 12.0143L21.2651 11.5141L20.8739 11.1836L21.3844 11.1327L21.5771 10.6598L21.782 11.1275L22.2937 11.1653L21.9111 11.5057L22.033 12.003L21.5912 11.7442L21.1562 12.0143Z" fill="#002664"/>
<path d="M18.7753 11.86L18.8842 11.3598L18.493 11.0294L19.0036 10.9784L19.1963 10.5055L19.4011 10.9732L19.9129 11.011L19.5303 11.3514L19.6521 11.8487L19.2103 11.5899L18.7753 11.86Z" fill="#002664"/>
<path d="M16.3906 11.8161L16.4995 11.3158L16.1082 10.9854L16.6188 10.9344L16.8115 10.4615L17.0164 10.9293L17.5281 10.967L17.1455 11.3075L17.2673 11.8047L16.8255 11.5459L16.3906 11.8161Z" fill="#002664"/>
<path d="M14.0078 11.9118L14.1167 11.4115L13.7254 11.0811L14.236 11.0301L14.4287 10.5572L14.6336 11.025L15.1453 11.0627L14.7627 11.4032L14.8845 11.9004L14.4427 11.6416L14.0078 11.9118Z" fill="#002664"/>
<path d="M11.6386 12.1852L11.7475 11.685L11.3563 11.3545L11.8669 11.3036L12.0595 10.8307L12.2644 11.2984L12.7761 11.3362L12.3936 11.6766L12.5154 12.1739L12.0736 11.9151L11.6386 12.1852Z" fill="#002664"/>
<path d="M9.30854 12.6862L9.41745 12.186L9.02619 11.8555L9.53677 11.8045L9.72946 11.3316L9.93433 11.7994L10.4461 11.8371L10.0635 12.1776L10.1853 12.6748L9.7435 12.4161L9.30854 12.6862Z" fill="#002664"/>
<path d="M7.05854 13.4801L7.16745 12.9799L6.77619 12.6495L7.28677 12.5985L7.47946 12.1256L7.68433 12.5933L8.19606 12.6311L7.81349 12.9715L7.93531 13.4688L7.4935 13.21L7.05854 13.4801Z" fill="#002664"/>
<path d="M4.97456 14.6364L5.08347 14.1362L4.69221 13.8057L5.20279 13.7547L5.39548 13.2818L5.60035 13.7496L6.11208 13.7873L5.72951 14.1278L5.85133 14.625L5.40952 14.3662L4.97456 14.6364Z" fill="#002664"/>
<path d="M23.5273 20.6823L23.6362 20.1821L23.2449 19.8516L23.7555 19.8006L23.9482 19.3277L24.1531 19.7955L24.6648 19.8332L24.2822 20.1737L24.4041 20.6709L23.9623 20.4121L23.5273 20.6823Z" fill="#002664"/>
<path d="M21.1562 20.4372L21.2651 19.9369L20.8739 19.6065L21.3844 19.5555L21.5771 19.0826L21.782 19.5504L22.2937 19.5881L21.9111 19.9286L22.033 20.4258L21.5912 20.167L21.1562 20.4372Z" fill="#002664"/>
<path d="M18.7753 20.2829L18.8842 19.7826L18.493 19.4522L19.0036 19.4012L19.1963 18.9283L19.4011 19.3961L19.9129 19.4338L19.5303 19.7743L19.6521 20.2715L19.2103 20.0127L18.7753 20.2829Z" fill="#002664"/>
<path d="M16.3906 20.2389L16.4995 19.7387L16.1082 19.4083L16.6188 19.3573L16.8115 18.8844L17.0164 19.3521L17.5281 19.3899L17.1455 19.7303L17.2673 20.2276L16.8255 19.9688L16.3906 20.2389Z" fill="#002664"/>
<path d="M14.0078 20.3346L14.1167 19.8344L13.7254 19.504L14.236 19.453L14.4287 18.9801L14.6336 19.4478L15.1453 19.4856L14.7627 19.826L14.8845 20.3233L14.4427 20.0645L14.0078 20.3346Z" fill="#002664"/>
<path d="M11.6386 20.6081L11.7475 20.1078L11.3563 19.7774L11.8669 19.7264L12.0595 19.2535L12.2644 19.7213L12.7761 19.759L12.3936 20.0995L12.5154 20.5967L12.0736 20.3379L11.6386 20.6081Z" fill="#002664"/>
<path d="M9.30854 21.109L9.41745 20.6088L9.02619 20.2784L9.53677 20.2274L9.72946 19.7545L9.93433 20.2222L10.4461 20.26L10.0635 20.6004L10.1853 21.0977L9.7435 20.8389L9.30854 21.109Z" fill="#002664"/>
<path d="M7.05854 21.903L7.16745 21.4028L6.77619 21.0723L7.28677 21.0213L7.47946 20.5484L7.68433 21.0162L8.19606 21.0539L7.81349 21.3944L7.93531 21.8916L7.4935 21.6328L7.05854 21.903Z" fill="#002664"/>
<path d="M4.97456 23.0592L5.08347 22.559L4.69221 22.2286L5.20279 22.1776L5.39548 21.7047L5.60035 22.1724L6.11208 22.2102L5.72951 22.5506L5.85133 23.0479L5.40952 22.7891L4.97456 23.0592Z" fill="#002664"/>
<path d="M1.5 2.5V61.5" stroke="#F8F8F8"/>
<circle cx="1.5" cy="1.5" r="1" fill="#F8F8F8" stroke="#F8F8F8"/>
</svg>
